<?xml version="1.0" encoding="utf-8"?>
<!-- Generator: Adobe Illustrator 19.2.0, SVG Export Plug-In . SVG Version: 6.00 Build 0)  -->
<svg version="1.1" id="Layer_1" xmlns="http://www.w3.org/2000/svg" xmlns:xlink="http://www.w3.org/1999/xlink" x="0px" y="0px"
	   viewBox="0 0 16 16" style="enable-background:new 0 0 16 16;" xml:space="preserve">
<polygon points="11,1 2,1 2,10 1,10 1,0 11,0 "/>
<polygon points="14,7 14,16 1,16 1,15 13,15 13,7 "/>
<rect x="1" y="11" width="3" height="3"/>
<rect x="5" y="5" width="3" height="9"/>
<rect x="9" y="8" width="3" height="6"/>
<polygon points="16,2 16,4 14,4 14,6 12,6 12,4 10,4 10,2 12,2 12,0 14,0 14,2 "/>
</svg>
