<?xml version="1.0" encoding="utf-8"?>
<!-- Generator: Adobe Illustrator 19.2.1, SVG Export Plug-In . SVG Version: 6.00 Build 0)  -->
<svg version="1.1" id="Layer_1" xmlns="http://www.w3.org/2000/svg" xmlns:xlink="http://www.w3.org/1999/xlink" x="0px" y="0px"
	   viewBox="0 0 16 16" style="enable-background:new 0 0 16 16;" xml:space="preserve">
<path d="M0,0v7h7V0H0z M6,2v4H1V2H6z"/>
<path d="M9,0v7h7V0H9z M15,2v4h-5V2H15z"/>
<path d="M0,9v7h7V9H0z M6,11v4H1v-4H6z"/>
<polygon points="15,11 15,13 13,13 13,15 11,15 11,13 9,13 9,11 11,11 11,9 13,9 13,11 "/>
</svg>
