<?xml version="1.0" encoding="utf-8"?>
<!-- Generator: Adobe Illustrator 23.0.1, SVG Export Plug-In . SVG Version: 6.00 Build 0)  -->
<svg version="1.1" id="Layer_1" xmlns="http://www.w3.org/2000/svg" xmlns:xlink="http://www.w3.org/1999/xlink" x="0px" y="0px"
	 viewBox="0 0 16 16" style="enable-background:new 0 0 16 16;" xml:space="preserve">
<path id="XMLID_28_" d="M8,12h4c0-4,0-6-6-6s-6,2-6,6h4v1H0v2h4v1h4v-1h4v-2H8V12z M7,15H5v-2h2V15z"/>
<path id="XMLID_29_" d="M6,6C4.4,6,3,4.7,3,3s1.4-3,3-3s3,1.4,3,3S7.6,6,6,6z"/>
<polygon id="XMLID_33_" points="16,2 16,4 14,4 14,6 12,6 12,4 10,4 10,2 12,2 12,0 14,0 14,2 "/>
</svg>
