<?xml version="1.0" encoding="utf-8"?>
<!-- Generator: Adobe Illustrator 16.0.0, SVG Export Plug-In . SVG Version: 6.00 Build 0)  -->
<!DOCTYPE svg PUBLIC "-//W3C//DTD SVG 1.1//EN" "http://www.w3.org/Graphics/SVG/1.1/DTD/svg11.dtd">
<svg version="1.1" id="Layer_1" xmlns="http://www.w3.org/2000/svg" xmlns:xlink="http://www.w3.org/1999/xlink" x="0px" y="0px"
	 width="16px" height="16px" viewBox="0 0 16 16" enable-background="new 0 0 16 16" xml:space="preserve">
<g id="_x31_6_49_">
	<path d="M11,3v9.5c0,1.4-1.1,2.5-2.5,2.5S6,13.9,6,12.5v-10C6,1.7,6.7,1,7.5,1S9,1.7,9,2.5v9C9,11.8,8.8,12,8.5,12
		C8.2,12,8,11.8,8,11.5V4H7v7.5C7,12.3,7.7,13,8.5,13s1.5-0.7,1.5-1.5v-9C10,1.1,8.9,0,7.5,0S5,1.1,5,2.5v10C5,14.4,6.6,16,8.5,16
		c1.9,0,3.5-1.6,3.5-3.5V3H11z"/>
</g>
</svg>
