<?xml version="1.0" encoding="utf-8"?>
<!-- Generator: Adobe Illustrator 19.0.0, SVG Export Plug-In . SVG Version: 6.00 Build 0)  -->
<svg version="1.1" baseProfile="tiny" id="Layer_1" xmlns="http://www.w3.org/2000/svg" xmlns:xlink="http://www.w3.org/1999/xlink"
	 x="0px" y="0px"   viewBox="0 0 16 16" xml:space="preserve">
<g>
	<path d="M14.082,11.079C14.082,13.61,12.348,15,9.43,15H3V1h5.997c2.919,0,4.674,1.299,4.674,3.808
		c0,1.505-0.844,2.599-1.869,2.965C13.124,8.205,14.082,9.505,14.082,11.079z M8.587,6.541c1.072,0,1.641-0.41,1.641-1.277
		c0-0.866-0.57-1.254-1.641-1.254H6.488v2.531H8.587z M6.488,11.99h2.463c1.026,0,1.596-0.547,1.596-1.345
		c0-0.844-0.57-1.368-1.596-1.368H6.488V11.99z"/>
</g>
</svg>
