<?xml version="1.0" encoding="utf-8"?>
<!-- Generator: Adobe Illustrator 18.0.0, SVG Export Plug-In . SVG Version: 6.00 Build 0)  -->
<!DOCTYPE svg PUBLIC "-//W3C//DTD SVG 1.1//EN" "http://www.w3.org/Graphics/SVG/1.1/DTD/svg11.dtd">
<svg version="1.1" id="Layer_1" xmlns="http://www.w3.org/2000/svg" xmlns:xlink="http://www.w3.org/1999/xlink" x="0px" y="0px"
	   viewBox="0 0 16 16" enable-background="new 0 0 16 16" xml:space="preserve">
<path d="M10.8,8l4.5-4.5l-2.8-2.8L8,5.2L3.5,0.6L0.6,3.5L5.2,8l-4.5,4.5l2.8,2.8L8,10.8l4.5,4.5l2.8-2.8L10.8,8z M12.5,14l-3.8-3.8
	L8,9.4l-0.7,0.7L3.5,14L2,12.5l3.8-3.8L6.6,8L5.9,7.3L2,3.5L3.5,2l3.8,3.8L8,6.6l0.7-0.7L12.5,2L14,3.5l-3.8,3.8L9.4,8l0.7,0.7
	l3.8,3.8L12.5,14z"/>
</svg>
