<?xml version="1.0" encoding="utf-8"?>
<!-- Generator: Adobe Illustrator 16.0.0, SVG Export Plug-In . SVG Version: 6.00 Build 0)  -->
<!DOCTYPE svg PUBLIC "-//W3C//DTD SVG 1.1//EN" "http://www.w3.org/Graphics/SVG/1.1/DTD/svg11.dtd">
<svg version="1.1" id="Layer_1" xmlns="http://www.w3.org/2000/svg" xmlns:xlink="http://www.w3.org/1999/xlink" x="0px" y="0px"
	 width="16px" height="16px" viewBox="0 0 16 16" enable-background="new 0 0 16 16" xml:space="preserve">
<g id="Cloud_soft16">
	<path d="M16,11V0H0v16h2v-1H1V3h14v8H16z M14,1h1v1h-1V1z M12,1h1v1h-1V1z M10,1h1v1h-1V1z"/>
</g>
<g id="Cloud_16">
	<path d="M15.2,13.5c-0.2-0.1-0.4-0.1-0.6-0.1c-0.1-0.8-0.6-1.6-1.4-1.9c-0.6-0.3-1.3-0.2-1.9,0c-0.2-0.9-0.8-1.7-1.7-2.1
		c-1.5-0.7-3.3,0-3.9,1.6c-0.1,0.2-0.2,0.5-0.2,0.7c-0.9-0.1-1.9,0.4-2.3,1.3c-0.5,1.1,0,2.4,1.1,2.8C4.6,15.9,4.9,16,5.2,16l9.7,0
		c0.4,0,0.9-0.4,1-0.8C16.2,14.6,15.9,13.8,15.2,13.5z"/>
</g>
</svg>
