<?xml version="1.0" encoding="utf-8"?>
<!-- Generator: Adobe Illustrator 18.0.0, SVG Export Plug-In . SVG Version: 6.00 Build 0)  -->
<!DOCTYPE svg PUBLIC "-//W3C//DTD SVG 1.1//EN" "http://www.w3.org/Graphics/SVG/1.1/DTD/svg11.dtd">
<svg version="1.1" id="Layer_1" xmlns="http://www.w3.org/2000/svg" xmlns:xlink="http://www.w3.org/1999/xlink" x="0px" y="0px"
	   viewBox="0 0 16 16" enable-background="new 0 0 16 16" xml:space="preserve">
<g>
	<path d="M16,11.4c0,0.3,0,1.3,0,1.3h-3V11c0-0.3-0.2-0.5-0.4-0.6c-0.1,0-0.1,0-0.2-0.1l-0.1,0c-0.2-0.1-0.3-0.1-0.5-0.2
		c-0.2-0.1-0.3-0.1-0.5-0.2c0.1-0.1,0.1-0.2,0.1-0.3c0,0,0,0,0,0c-0.2-0.3-0.4-0.8-0.5-1.2c0,0,0-0.1-0.1-0.1
		c-0.2-0.2-0.3-0.5-0.1-0.8c0,0,0-0.1,0-0.1c0-0.3,0-0.4,0-0.7c0-0.7,0.4-1.1,1.1-1.3c0.4-0.1,0.8-0.1,1.2,0.1
		c0.5,0.2,0.7,0.5,0.8,1c0,0.3,0,0.5,0,0.9c0,0.1,0,0.1,0.1,0.2c0.1,0.2,0.1,0.6-0.1,0.8c0,0-0.1,0.1-0.1,0.1
		c-0.1,0.3-0.3,0.9-0.5,1.2c-0.1,0.1,0,0.3,0,0.3c0.1,0.1,0.3,0.2,0.4,0.3c0.6,0.4,1.3,0.6,2,0.9c0.1,0,0.1,0,0.2,0.1
		C15.9,11.2,16,11.3,16,11.4z"/>
	<path d="M5.2,8.3C5.1,8.3,5.1,8.3,5.2,8.3C5,8.7,4.8,9.3,4.6,9.5c-0.1,0.1,0,0.3,0,0.3c0,0,0,0,0.1,0c-0.2,0.1-0.4,0.1-0.6,0.2
		c-0.2,0.1-0.4,0.1-0.6,0.2C3.1,10.5,3,10.7,3,11.1v1.5H0c0,0,0-0.9,0-1.2c0-0.2,0-0.3,0.2-0.3c0.6-0.2,1.1-0.4,1.6-0.7
		c0.2-0.1,0.5-0.2,0.7-0.4c0,0,0.1-0.1,0.1-0.1c0.1-0.1,0.1-0.2,0.1-0.4c0,0,0,0,0,0C2.5,9.3,2.3,8.7,2.2,8.4c0,0,0-0.1-0.1-0.1
		C1.9,8.1,1.9,7.8,2.1,7.5c0,0,0-0.1,0-0.1c0-0.3,0-0.4,0-0.7c0-0.7,0.4-1.1,1.1-1.3C3.6,5.3,4,5.3,4.4,5.5c0.5,0.2,0.7,0.5,0.8,1
		c0,0.3,0,0.5,0,0.9c0,0.1,0,0.1,0.1,0.2C5.4,7.8,5.4,8.1,5.2,8.3z"/>
	<path d="M12.7,11v1.6c0,0,0,0,0,0H3.3c0,0,0,0,0,0v-1.5c0-0.2,0.1-0.3,0.3-0.4c0.5-0.2,1-0.3,1.4-0.5c0.2-0.1,0.4-0.2,0.7-0.3
		C6,9.6,6.3,9.5,6.6,9.3c0.1,0,0.1-0.1,0.1-0.1c0.1-0.1,0.1-0.3,0.1-0.4c0,0,0,0,0-0.1c-0.3-0.3-0.5-1-0.6-1.5c0,0,0-0.1-0.1-0.1
		c-0.3-0.3-0.3-0.7-0.1-1C6,6.1,6,6,6,5.9c0-0.4,0-0.6,0-1c0-0.8,0.6-1.4,1.4-1.6c0.2,0,0.4-0.1,0.6-0.1c0.3,0,0.6,0.1,0.9,0.2
		c0.6,0.2,0.9,0.7,1,1.3c0.1,0.4,0,0.7,0,1.1C10,6,10,6,10.1,6.1c0.2,0.3,0.1,0.7-0.2,1c0,0-0.1,0.1-0.1,0.1
		C9.7,7.6,9.5,8.4,9.2,8.7C9.1,8.8,9.1,9,9.2,9.1c0.2,0.2,0.3,0.2,0.5,0.3c0.4,0.3,0.9,0.5,1.3,0.7c0.4,0.2,0.8,0.3,1.2,0.5
		c0.1,0,0.2,0.1,0.2,0.1C12.6,10.8,12.7,10.9,12.7,11z"/>
</g>
</svg>
