<?xml version="1.0" encoding="utf-8"?>
<!-- Generator: Adobe Illustrator 16.0.0, SVG Export Plug-In . SVG Version: 6.00 Build 0)  -->
<!DOCTYPE svg PUBLIC "-//W3C//DTD SVG 1.1//EN" "http://www.w3.org/Graphics/SVG/1.1/DTD/svg11.dtd">
<svg version="1.1" id="Layer_1" xmlns="http://www.w3.org/2000/svg" xmlns:xlink="http://www.w3.org/1999/xlink" x="0px" y="0px"
	 width="16px" height="16px" viewBox="0 0 16 16" enable-background="new 0 0 16 16" xml:space="preserve">
<g id="_x31_6_48_">
	<path d="M10,7.8h1V2l0.3-1V0H11h-1H9.8v1L10,2V7.8z M5.7,6.9v6.6c0,0.1,0.1,0.3,0.3,0.3s0.3-0.1,0.3-0.3V6.9c0-0.1-0.1-0.3-0.3-0.3
		S5.7,6.7,5.7,6.9z M11.3,9.5c0-0.3,0.5-0.8,0.5-1S11.7,8,11.3,8H9.8C9.3,8,9.3,8.3,9.3,8.5s0.5,0.8,0.5,1c0,0.4-0.8,0.6-0.8,1v4.8
		C9,15.7,9.3,16,9.8,16h1.5c0.4,0,0.8-0.3,0.8-0.8v-4.8C12,10.1,11.3,9.8,11.3,9.5z M9.9,15.3c0,0.1-0.1,0.3-0.1,0.3
		s-0.1-0.1-0.1-0.3v-4.5c0-0.1,0.1-0.3,0.1-0.3s0.1,0.1,0.1,0.3V15.3z M11.4,15.3c0,0.1-0.1,0.3-0.1,0.3s-0.1-0.1-0.1-0.3v-4.5
		c0-0.1,0.1-0.3,0.1-0.3s0.1,0.1,0.1,0.3V15.3z M4.9,5.4V15c0,0.6,0.5,1,1.1,1s1.1-0.5,1.1-1V5.4C6.8,5.5,6.4,5.6,6,5.6
		S5.2,5.5,4.9,5.4z M6,15.4c-0.2,0-0.4-0.2-0.4-0.4s0.2-0.4,0.4-0.4s0.4,0.2,0.4,0.4S6.2,15.4,6,15.4z M6.5,6.9v6.6
		C6.5,13.7,6.3,14,6,14c-0.3,0-0.5-0.2-0.5-0.5V6.9c0-0.3,0.2-0.5,0.5-0.5C6.3,6.4,6.5,6.6,6.5,6.9z M7.6,0.8H7.4v1.8
		C7.4,3,7,3.3,6.5,3.3H5.5C5,3.3,4.6,3,4.6,2.5V0.8H4.4C3.7,1.2,3.3,2,3.3,2.8c0,1.4,1.2,2.5,2.7,2.5s2.7-1.1,2.7-2.5
		C8.7,2,8.3,1.2,7.6,0.8z"/>
</g>
</svg>
