<?xml version="1.0" encoding="utf-8"?>
<!-- Generator: Adobe Illustrator 18.1.1, SVG Export Plug-In . SVG Version: 6.00 Build 0)  -->
<!DOCTYPE svg PUBLIC "-//W3C//DTD SVG 1.1//EN" "http://www.w3.org/Graphics/SVG/1.1/DTD/svg11.dtd">
<svg version="1.1" xmlns="http://www.w3.org/2000/svg" xmlns:xlink="http://www.w3.org/1999/xlink" x="0px" y="0px" 
	  viewBox="0 0 16 16" enable-background="new 0 0 16 16" xml:space="preserve">
<g id="Layer_1" display="none">
	<g display="inline">
		<path d="M3,7v4h13V7H3z M7,10H4V8h3V10z M11,10H8V8h3V10z M15,10h-3V8h3V10z"/>
	</g>
	<rect x="1" y="5" display="inline" width="1" height="5"/>
	<rect x="1" y="5" display="inline" width="13" height="1"/>
</g>
<g id="Layer_2" display="none">
	<g display="inline">
		<path d="M6,11H2V8h4V11z M11,11H7V8h4V11z M16,11h-4V8h4V11z"/>
	</g>
	<polygon display="inline" points="4,6 4,7 1,7 1,10 0,10 0,6 	"/>
	<rect x="6" y="6" display="inline" width="4" height="1"/>
	<rect x="11" y="6" display="inline" width="4" height="1"/>
</g>
<g id="Layer_3">
	<polygon points="13,0 13,2 12,2 12,1 1,1 1,12 2,12 2,13 0,13 0,0 	"/>
	<path d="M3,3v13h13V3H3z M7,14H4v-2h3V14z M7,11H4V9h3V11z M11,14H8v-2h3V14z M11,11H8V9h3V11z M11,8H8V6h3V8z M15,11h-3V9h3V11z
		 M15,8h-3V6h3V8z"/>
</g>
<g id="Layer_4" display="none">
	<rect x="3" y="6" display="inline" width="13" height="6"/>
	<rect x="4" y="8" display="inline" fill="#FFFFFF" width="3" height="2"/>
	<rect x="8" y="8" display="inline" fill="#FFFFFF" width="3" height="2"/>
	<rect x="12" y="8" display="inline" fill="#FFFFFF" width="3" height="2"/>
	<polygon display="inline" points="13,3 13,5 12,5 12,4 1,4 1,8 2,8 2,9 0,9 0,3 	"/>
</g>
<g id="Layer_5" display="none">
	<rect x="2" y="2" display="inline" width="14" height="14"/>
	<polygon display="inline" points="14,0 14,1 1,1 1,14 0,14 0,0 	"/>
	<polyline display="inline" fill="none" stroke="#FFFFFF" stroke-miterlimit="10" points="5,10 8,7 12,7 15,10 	"/>
</g>
</svg>
