<?xml version="1.0" encoding="utf-8"?>
<!-- Generator: Adobe Illustrator 18.1.1, SVG Export Plug-In . SVG Version: 6.00 Build 0)  -->
<!DOCTYPE svg PUBLIC "-//W3C//DTD SVG 1.1//EN" "http://www.w3.org/Graphics/SVG/1.1/DTD/svg11.dtd">
<svg version="1.1" id="Layer_1" xmlns="http://www.w3.org/2000/svg" xmlns:xlink="http://www.w3.org/1999/xlink" x="0px" y="0px"
	 viewBox="0 0 16 16" enable-background="new 0 0 16 16" xml:space="preserve">
<path d="M12,2H5v14h11V6L12,2z M15,15H6V3h6v3h3V15z"/>
<rect width="1" height="13"/>
<rect width="7" height="1"/>
<rect x="2" y="3" width="2" height="1"/>
<rect x="2" y="5" width="2" height="1"/>
<rect x="2" y="7" width="2" height="1"/>
<rect x="2" y="9" width="2" height="1"/>
<rect x="2" y="11" width="2" height="1"/>
<rect x="8" y="5" width="2" height="1"/>
<rect x="8" y="7" width="5" height="1"/>
<rect x="8" y="9" width="5" height="1"/>
<rect x="8" y="11" width="5" height="1"/>
<rect x="8" y="13" width="5" height="1"/>
<rect y="13" width="4" height="1"/>
</svg>
