<?xml version="1.0" encoding="utf-8"?>
<!-- Generator: Adobe Illustrator 21.1.0, SVG Export Plug-In . SVG Version: 6.00 Build 0)  -->
<svg version="1.1" id="Layer_1" xmlns="http://www.w3.org/2000/svg" xmlns:xlink="http://www.w3.org/1999/xlink" x="0px" y="0px"
	 viewBox="0 0 16 16" style="enable-background:new 0 0 16 16;" xml:space="preserve">
<path d="M16,6V4h-2V2h-2V0h-2v2H9V0H7v2H6V0H4v2H2v2H0v2h2v1H0v2h2v1H0v2h2v2h2v2h2v-2h1v2h2v-2h1v2h2v-2h2v-2h2v-2h-2V9h2V7h-2V6
	H16z M12,12H4V4h8V12z"/>
</svg>
