<?xml version="1.0" encoding="utf-8"?>
<!-- Generator: Adobe Illustrator 16.0.0, SVG Export Plug-In . SVG Version: 6.00 Build 0)  -->
<!DOCTYPE svg PUBLIC "-//W3C//DTD SVG 1.1//EN" "http://www.w3.org/Graphics/SVG/1.1/DTD/svg11.dtd">
<svg version="1.1" id="Layer_1" xmlns="http://www.w3.org/2000/svg" xmlns:xlink="http://www.w3.org/1999/xlink" x="0px" y="0px"
	 width="16px" height="16px" viewBox="0 0 16 16" enable-background="new 0 0 16 16" xml:space="preserve">
<g id="Cut_16">
	<path d="M6.2,8.2l1.4-2.1L3.5,0l0,0c0,0-0.4,0.8-0.6,1.7C2.7,2.3,3.1,3.8,3.1,3.8L6.2,8.2z M13.5,11.3c-0.7-0.9-3.2-1.8-3.6-1.9
		L9.8,9.2l-1.5,2.2c0.3,0.7,0.8,1.9,1.6,2.9c1.2,1.4,2.8,2.2,3.7,1.5C14.6,15,14.6,12.7,13.5,11.3z M13.1,14.9
		c-0.6,0.5-1.8,0-2.4-0.9c-1.1-1.7-0.8-2.2-0.5-2.6c0.4-0.3,1-0.4,2.6,0.6C13.8,12.5,13.7,14.3,13.1,14.9z M12.9,3.8
		c0,0,0.4-1.5,0.3-2.1C13,0.8,12.6,0,12.6,0l0,0L7.8,7L6.2,9.4c-0.4,0.1-2.8,1.1-3.6,1.9c-1.2,1.4-1.1,3.7-0.2,4.4
		c0.9,0.8,2.6-0.1,3.7-1.5C7.3,12.9,8,10.8,8,10.8l0,0L12.9,3.8z M5.4,13.9c-0.6,1-1.8,1.5-2.4,0.9c-0.6-0.5-0.7-2.3,0.3-3
		c1.6-1,2.2-0.9,2.6-0.6C6.2,11.7,6.5,12.2,5.4,13.9z M7.2,8.7c0-0.5,0.4-0.8,0.8-0.8c0.5,0,0.8,0.4,0.8,0.8c0,0.5-0.4,0.8-0.8,0.8
		C7.6,9.5,7.2,9.1,7.2,8.7z"/>
</g>
</svg>
