<?xml version="1.0" encoding="utf-8"?>
<!-- Generator: Adobe Illustrator 17.1.0, SVG Export Plug-In . SVG Version: 6.00 Build 0)  -->
<!DOCTYPE svg PUBLIC "-//W3C//DTD SVG 1.1//EN" "http://www.w3.org/Graphics/SVG/1.1/DTD/svg11.dtd">
<svg version="1.1" id="Layer_1" xmlns="http://www.w3.org/2000/svg" xmlns:xlink="http://www.w3.org/1999/xlink" x="0px" y="0px"
	 viewBox="0 0 16 16" enable-background="new 0 0 16 16" xml:space="preserve">
<rect x="4" y="10" width="1" height="1"/>
<rect x="3" y="11" width="1" height="1"/>
<rect x="5" y="11" width="1" height="1"/>
<rect x="12" y="12" width="1" height="1"/>
<rect x="1" y="5" width="1" height="1"/>
<rect x="5" y="5" width="1" height="1"/>
<rect x="11" y="5" width="1" height="1"/>
<rect x="14" y="5" width="1" height="1"/>
<path d="M-1,1v14h17V1H-1z M7,12H6v1h1v1H0v-1h3v-1H0V9h7V12z M7,6H6v1h1v1H0V7h1V6H0V3h7V6z M15,11h-2v1h2v2H8v-2h4v-1H8V9h7V11z
	 M15,8H8V6h1V5H8V3h7V8z"/>
<rect x="12" y="6" width="2" height="1"/>
<rect x="9" y="4" width="2" height="1"/>
<rect x="2" y="4" width="3" height="1"/>
</svg>
