<?xml version="1.0" encoding="utf-8"?>
<!-- Generator: Adobe Illustrator 16.0.0, SVG Export Plug-In . SVG Version: 6.00 Build 0)  -->
<!DOCTYPE svg PUBLIC "-//W3C//DTD SVG 1.1//EN" "http://www.w3.org/Graphics/SVG/1.1/DTD/svg11.dtd">
<svg version="1.1" id="Layer_1" xmlns="http://www.w3.org/2000/svg" xmlns:xlink="http://www.w3.org/1999/xlink" x="0px" y="0px"
	   viewBox="0 0 16 16" enable-background="new 0 0 16 16" xml:space="preserve">
<path d="M14,5.117v2.881c0,0.773-0.736,1.467-1.92,1.947c-0.331,0.147-0.719,0.267-1.125,0.374c-0.87,0.227-1.89,0.347-2.956,0.347
	c-1.064,0-2.085-0.12-2.955-0.347C4.64,10.212,4.25,10.093,3.919,9.945C2.735,9.465,2,8.771,2,7.998V5.117
	c0.105,0.081,0.21,0.147,0.33,0.214C2.54,5.464,2.78,5.598,3.035,5.705c0.27,0.133,0.57,0.253,0.885,0.347
	C5.074,6.451,6.485,6.665,8,6.665c1.516,0,2.925-0.214,4.081-0.613c0.315-0.094,0.614-0.214,0.884-0.347
	c0.257-0.107,0.496-0.241,0.707-0.374C13.79,5.265,13.895,5.198,14,5.117z"/>
<path d="M14,10.452v2.881C14,14.799,11.314,16,8,16s-6-1.201-6-2.667v-2.881c0.105,0.081,0.21,0.147,0.33,0.214
	c0.209,0.133,0.45,0.267,0.705,0.373c0.27,0.133,0.57,0.253,0.885,0.347c1.155,0.399,2.566,0.613,4.08,0.613
	c1.516,0,2.925-0.214,4.081-0.613c0.315-0.094,0.614-0.214,0.884-0.347c0.257-0.106,0.496-0.24,0.707-0.373
	C13.79,10.6,13.895,10.533,14,10.452z"/>
<path d="M14,2.664c0,0.773-0.736,1.467-1.92,1.947c-0.331,0.146-0.719,0.267-1.125,0.373C10.085,5.211,9.065,5.331,8,5.331
	c-1.064,0-2.085-0.12-2.955-0.347C4.64,4.878,4.25,4.758,3.919,4.611C2.735,4.131,2,3.438,2,2.664C2,1.29,4.355,0.144,7.385,0.01
	h1.229C11.645,0.144,14,1.29,14,2.664z"/>
</svg>
