<?xml version="1.0" encoding="utf-8"?>
<!-- Generator: Adobe Illustrator 16.0.0, SVG Export Plug-In . SVG Version: 6.00 Build 0)  -->
<!DOCTYPE svg PUBLIC "-//W3C//DTD SVG 1.1//EN" "http://www.w3.org/Graphics/SVG/1.1/DTD/svg11.dtd">
<svg version="1.1" id="Layer_1" xmlns="http://www.w3.org/2000/svg" xmlns:xlink="http://www.w3.org/1999/xlink" x="0px" y="0px"
	 width="16px" height="16px" viewBox="0 0 16 16" enable-background="new 0 0 16 16" xml:space="preserve">
<g>
	<path d="M12,10v1H9V9.4C8.6,9.2,8.3,9,8,8.7V11H5V8h2.3C7,7.7,6.8,7.4,6.6,7H5V4h1c0-0.3,0.1-0.7,0.2-1H0v13h13V9.8
		C12.7,9.9,12.3,10,12,10z M4,15H1v-3h3V15z M4,11H1V8h3V11z M4,7H1V4h3V7z M5,15v-3h3v3H5z M12,15H9v-3h3V15z"/>
	<path d="M11.5,0C9.1,0,7,2.1,7,4.5c0,2.8,2.6,4.9,5.3,4.4c2.2-0.4,3.8-2.5,3.7-4.7C15.9,1.9,13.8,0,11.5,0z M11.5,8
		C9.6,8,8,6.4,8,4.5S9.6,1,11.5,1S15,2.6,15,4.5S13.4,8,11.5,8z"/>
	<polygon points="13.3,5.8 12.6,6.5 11,5 11,2 12,2 12,4.5 	"/>
</g>
</svg>
