<?xml version="1.0" encoding="utf-8"?>
<!-- Generator: Adobe Illustrator 16.0.0, SVG Export Plug-In . SVG Version: 6.00 Build 0)  -->
<!DOCTYPE svg PUBLIC "-//W3C//DTD SVG 1.1//EN" "http://www.w3.org/Graphics/SVG/1.1/DTD/svg11.dtd">
<svg version="1.1" id="Layer_1" xmlns="http://www.w3.org/2000/svg" xmlns:xlink="http://www.w3.org/1999/xlink" x="0px" y="0px"
	 width="16px" height="16px" viewBox="0 0 16 16" enable-background="new 0 0 16 16" xml:space="preserve">
<path d="M12.3,2.1L11.2,1L8.5,3.7l1.1,1.1L12.3,2.1z M6.9,7.4L2.1,2.6l0.5-0.5L1.6,1L0,2.6l4.8,4.8L0,12.2l1.6,1.6l1.1-1.1l-0.5-0.5
	L6.9,7.4z M8.5,11.1l2.7,2.7l1.1-1.1l-2.7-2.7L8.5,11.1z M16,2.6L14.4,1L9.6,5.8L4.8,1L3.2,2.6L8,7.4l-4.8,4.8l1.6,1.6L9.6,9
	l4.8,4.8l1.6-1.6l-4.8-4.8L16,2.6z"/>
</svg>
