<?xml version="1.0" encoding="utf-8"?>
<!-- Generator: Adobe Illustrator 18.0.0, SVG Export Plug-In . SVG Version: 6.00 Build 0)  -->
<!DOCTYPE svg PUBLIC "-//W3C//DTD SVG 1.1//EN" "http://www.w3.org/Graphics/SVG/1.1/DTD/svg11.dtd">
<svg version="1.1" id="Layer_1" xmlns="http://www.w3.org/2000/svg" xmlns:xlink="http://www.w3.org/1999/xlink" x="0px" y="0px"
	   viewBox="0 0 16 16" enable-background="new 0 0 16 16" xml:space="preserve">
<g>
	<path d="M9.312,6.392C8.328,6.392,8,7.24,8,7.24V6.5H7v4h1V8.292C8,8.044,8,7.42,8.876,7.42c0.46,0,0.624,0.324,0.624,0.924V10.5h1
		h0.004V8.132C10.504,7.068,10.076,6.392,9.312,6.392z"/>
	<rect x="5.5" y="5" width="1" height="1"/>
	<rect x="5.5" y="6.5" width="1" height="4"/>
	<path d="M8,0C3.582,0,0,3.582,0,8s3.582,8,8,8s8-3.582,8-8S12.418,0,8,0z M12,11c0,0.548-0.452,1-1,1H5c-0.548,0-1-0.452-1-1V5
		c0-0.548,0.452-1,1-1h6c0.548,0,1,0.452,1,1V11z"/>
</g>
</svg>
