<?xml version="1.0" encoding="utf-8"?>
<!-- Generator: Adobe Illustrator 20.1.0, SVG Export Plug-In . SVG Version: 6.00 Build 0)  -->
<svg version="1.1" id="Layer_1" xmlns="http://www.w3.org/2000/svg" xmlns:xlink="http://www.w3.org/1999/xlink" x="0px" y="0px"
	   viewBox="0 0 16 16" style="enable-background:new 0 0 16 16;" xml:space="preserve">
<g>
	<rect x="9" y="10" transform="matrix(0.9239 -0.3827 0.3827 0.9239 -4.1411 4.7987)" width="2" height="5.6"/>
	<rect x="11.8" y="7.2" transform="matrix(0.3827 -0.9239 0.9239 0.3827 -1.3244 18.0012)" width="2" height="5.6"/>
	<rect x="3.2" y="11.8" transform="matrix(0.3827 -0.9239 0.9239 0.3827 -8.1241 13.4577)" width="5.6" height="2"/>
	<rect x="0.4" y="9" transform="matrix(0.9239 -0.3827 0.3827 0.9239 -3.5808 1.9818)" width="5.6" height="2"/>
	<rect x="10" y="5" transform="matrix(0.9239 -0.3827 0.3827 0.9239 -1.3242 5.3591)" width="5.6" height="2"/>
	<rect x="7.2" y="2.2" transform="matrix(0.3827 -0.9239 0.9239 0.3827 3.2191 11.2014)" width="5.6" height="2"/>
	<rect x="2.2" y="3.2" transform="matrix(0.3827 -0.9239 0.9239 0.3827 -3.5807 6.658)" width="2" height="5.6"/>
	<rect x="5" y="0.4" transform="matrix(0.9239 -0.3827 0.3827 0.9239 -0.7639 2.5421)" width="2" height="5.6"/>
</g>
</svg>
