<?xml version="1.0" encoding="utf-8"?>
<!-- Generator: Adobe Illustrator 19.2.1, SVG Export Plug-In . SVG Version: 6.00 Build 0)  -->
<svg version="1.1" id="Layer_1" xmlns="http://www.w3.org/2000/svg" xmlns:xlink="http://www.w3.org/1999/xlink" x="0px" y="0px"
	   viewBox="0 0 16 16" style="enable-background:new 0 0 16 16;" xml:space="preserve">
<path d="M11.5,10.1L9.4,8l2.1-2.1l-1.4-1.4L8,6.6L5.9,4.5L4.5,5.9L6.6,8l-2.1,2.1l1.4,1.4L8,9.4l2.1,2.1L11.5,10.1z"/>
<path d="M8,1.5c3.584,0,6.5,2.916,6.5,6.5s-2.916,6.5-6.5,6.5S1.5,11.584,1.5,8S4.416,1.5,8,1.5 M8,0C3.582,0,0,3.582,0,8
	s3.582,8,8,8s8-3.582,8-8S12.418,0,8,0L8,0z"/>
</svg>
