<?xml version="1.0" encoding="utf-8"?>
<!-- Generator: Adobe Illustrator 19.2.1, SVG Export Plug-In . SVG Version: 6.00 Build 0)  -->
<svg version="1.1" id="Layer_1" xmlns="http://www.w3.org/2000/svg" xmlns:xlink="http://www.w3.org/1999/xlink" x="0px" y="0px"
	   viewBox="0 0 16 16" style="enable-background:new 0 0 16 16;" xml:space="preserve">
<style type="text/css">
	.st0{fill:#FFFFFF;}
</style>
<path d="M9.3,15.4L9.3,15.4c-0.7-0.8-1.9-0.8-2.6,0l0,0c-1.1,1.2-3.1,0.4-3-1.3l0,0c0.1-1-0.8-1.9-1.8-1.8l0,0
	c-1.6,0.1-2.5-1.9-1.3-3l0,0c0.8-0.7,0.8-1.9,0-2.6l0,0c-1.2-1.1-0.4-3.1,1.3-3l0,0c1,0.1,1.9-0.8,1.8-1.8l0,0
	c-0.1-1.6,1.9-2.5,3-1.3l0,0c0.7,0.8,1.9,0.8,2.6,0l0,0c1.1-1.2,3.1-0.4,3,1.3l0,0c-0.1,1,0.8,1.9,1.8,1.8l0,0
	c1.6-0.1,2.5,1.9,1.3,3l0,0c-0.8,0.7-0.8,1.9,0,2.6l0,0c1.2,1.1,0.4,3.1-1.3,3l0,0c-1-0.1-1.9,0.8-1.8,1.8l0,0
	C12.4,15.8,10.4,16.6,9.3,15.4z"/>
<g>
	<path class="st0" d="M8,4c2.2,0,4,1.8,4,4s-1.8,4-4,4s-4-1.8-4-4S5.8,4,8,4 M8,3C5.2,3,3,5.2,3,8s2.2,5,5,5s5-2.2,5-5S10.8,3,8,3
		L8,3z"/>
</g>
</svg>
