<?xml version="1.0" encoding="utf-8"?>
<!-- Generator: Adobe Illustrator 19.2.1, SVG Export Plug-In . SVG Version: 6.00 Build 0)  -->
<svg version="1.1" id="Layer_1" xmlns="http://www.w3.org/2000/svg" xmlns:xlink="http://www.w3.org/1999/xlink" x="0px" y="0px"
	   viewBox="0 0 16 16" style="enable-background:new 0 0 16 16;" xml:space="preserve">
<path d="M1.7,9.4L0.3,10c-0.4-1.4-0.4-2.8,0-4.2l1.4,0.6C1.4,7.4,1.4,8.5,1.7,9.4z"/>
<path d="M4.6,13.5L4,14.9c-1.3-0.7-2.3-1.8-2.9-3l1.4-0.6C2.9,12.2,3.7,13,4.6,13.5z"/>
<path d="M10,15.7c-1.4,0.4-2.8,0.4-4.2,0l0.6-1.4c1,0.3,2.1,0.3,3.1,0L10,15.7z"/>
<path d="M14.9,12c-0.7,1.3-1.8,2.3-3,2.9l-0.6-1.4c0.9-0.5,1.6-1.2,2.2-2.1L14.9,12z"/>
<path d="M15.7,10.2l-1.4-0.6c0.3-1,0.3-2.1,0-3.1L15.7,6C16.1,7.3,16.1,8.8,15.7,10.2z"/>
<path d="M15,4.1l-1.4,0.6c-0.5-0.9-1.2-1.6-2.1-2.2L12,1.1C13.3,1.8,14.3,2.9,15,4.1z"/>
<path d="M10.2,0.3L9.6,1.7c-1-0.3-2.1-0.3-3.1,0L6,0.3C7.3-0.1,8.8-0.1,10.2,0.3z"/>
<path d="M4.7,2.4C3.8,2.9,3,3.7,2.5,4.6L1.1,4c0.7-1.3,1.8-2.3,3-2.9L4.7,2.4z"/>
<g>
	<rect x="5" y="5" width="6" height="6"/>
</g>
</svg>
