<?xml version="1.0" encoding="utf-8"?>
<!-- Generator: Adobe Illustrator 19.2.1, SVG Export Plug-In . SVG Version: 6.00 Build 0)  -->
<svg version="1.1" id="Layer_1" xmlns="http://www.w3.org/2000/svg" xmlns:xlink="http://www.w3.org/1999/xlink" x="0px" y="0px"
	   viewBox="0 0 16 16" style="enable-background:new 0 0 16 16;" xml:space="preserve">
<path d="M1.679,9.449l-1.418,0.567c-0.353-1.359-0.362-2.81,0.047-4.223l1.397,0.599C1.443,7.411,1.437,8.464,1.679,9.449z"/>
<path d="M4.552,13.509l-0.599,1.397c-1.271-0.741-2.265-1.798-2.947-3.025l1.418-0.567C2.929,12.193,3.659,12.952,4.552,13.509z"/>
<path d="M10.014,15.741c-1.359,0.353-2.81,0.362-4.223-0.047l0.599-1.397c1.019,0.263,2.072,0.268,3.057,0.026L10.014,15.741z"/>
<path d="M14.904,12.049c-0.741,1.271-1.798,2.265-3.025,2.947l-0.567-1.418c0.88-0.504,1.639-1.234,2.195-2.127L14.904,12.049z"/>
<path d="M15.692,10.21l-1.397-0.599c0.263-1.019,0.268-2.072,0.026-3.057l1.418-0.567C16.092,7.347,16.102,8.798,15.692,10.21z"/>
<path d="M14.993,4.123L13.575,4.69c-0.504-0.88-1.234-1.639-2.127-2.195l0.599-1.397C13.318,1.838,14.312,2.895,14.993,4.123z"/>
<path d="M10.209,0.31L9.61,1.707C8.591,1.444,7.538,1.439,6.553,1.681L5.986,0.263C7.345-0.091,8.796-0.1,10.209,0.31z"/>
<path d="M4.688,2.427C3.809,2.931,3.05,3.661,2.493,4.554L1.096,3.955c0.74-1.271,1.797-2.265,3.025-2.947L4.688,2.427z"/>
</svg>
