<?xml version="1.0" encoding="utf-8"?>
<!-- Generator: Adobe Illustrator 16.0.0, SVG Export Plug-In . SVG Version: 6.00 Build 0)  -->
<!DOCTYPE svg PUBLIC "-//W3C//DTD SVG 1.1//EN" "http://www.w3.org/Graphics/SVG/1.1/DTD/svg11.dtd">
<svg version="1.1" id="Layer_1" xmlns="http://www.w3.org/2000/svg" xmlns:xlink="http://www.w3.org/1999/xlink" x="0px" y="0px"
	 width="16px" height="16px" viewBox="0 0 16 16" enable-background="new 0 0 16 16" xml:space="preserve">
<polygon points="15,4 15,16 11,16 11,15 14,15 14,4 11,4 11,1 3,1 3,3 2,3 2,0 11,0 "/>
<path d="M9,7.84V10c0,0.58-0.49,1.1-1.28,1.46c-0.22,0.11-0.48,0.2-0.75,0.28C6.39,11.91,5.71,12,5,12s-1.39-0.09-1.97-0.26
	c-0.27-0.08-0.53-0.17-0.75-0.28C1.49,11.1,1,10.58,1,10V7.84C1.07,7.9,1.14,7.95,1.22,8c0.14,0.1,0.3,0.2,0.47,0.28
	c0.18,0.1,0.38,0.189,0.59,0.26C3.05,8.84,3.99,9,5,9s1.95-0.16,2.72-0.46C7.93,8.47,8.13,8.38,8.31,8.28C8.48,8.2,8.64,8.1,8.78,8
	C8.86,7.95,8.93,7.9,9,7.84z"/>
<path d="M9,11.84V14c0,1.1-1.79,2-4,2s-4-0.9-4-2v-2.16C1.07,11.9,1.14,11.95,1.22,12c0.14,0.1,0.3,0.2,0.47,0.28
	c0.18,0.1,0.38,0.189,0.59,0.26C3.05,12.84,3.99,13,5,13s1.95-0.16,2.72-0.46c0.21-0.07,0.41-0.16,0.589-0.26
	C8.48,12.2,8.64,12.1,8.78,12C8.86,11.95,8.93,11.9,9,11.84z"/>
<path d="M9,6c0,0.58-0.49,1.1-1.28,1.46C7.5,7.57,7.24,7.66,6.97,7.74C6.39,7.91,5.71,8,5,8S3.61,7.91,3.03,7.74
	C2.76,7.66,2.5,7.57,2.28,7.46C1.49,7.1,1,6.58,1,6c0-1.03,1.57-1.89,3.59-1.99h0.82C7.43,4.11,9,4.97,9,6z"/>
</svg>
