<?xml version="1.0" encoding="utf-8"?>
<!-- Generator: Adobe Illustrator 16.0.0, SVG Export Plug-In . SVG Version: 6.00 Build 0)  -->
<!DOCTYPE svg PUBLIC "-//W3C//DTD SVG 1.1//EN" "http://www.w3.org/Graphics/SVG/1.1/DTD/svg11.dtd">
<svg version="1.1" id="Layer_1" xmlns="http://www.w3.org/2000/svg" xmlns:xlink="http://www.w3.org/1999/xlink" x="0px" y="0px"
	 width="16px" height="16px" viewBox="0 0 16 16" enable-background="new 0 0 16 16" xml:space="preserve">
<circle cx="3.5" cy="8.5" r="1.5"/>
<path d="M0,5v9h12V5H0z M11,10c-0.83,0.75-2.141,1.74-3.3,1.73C6.66,11.71,5.39,10.84,4.41,11.09C3.06,11.439,1.77,12.359,1,13V6h10
	V10z"/>
<polygon points="15,4 15,16 2,16 2,15 14,15 14,4 11,4 11,1 3,1 3,4 2,4 2,0 11,0 "/>
</svg>
