<?xml version="1.0" encoding="utf-8"?>
<!-- Generator: Adobe Illustrator 16.0.0, SVG Export Plug-In . SVG Version: 6.00 Build 0)  -->
<!DOCTYPE svg PUBLIC "-//W3C//DTD SVG 1.1//EN" "http://www.w3.org/Graphics/SVG/1.1/DTD/svg11.dtd">
<svg version="1.1" id="Layer_1" xmlns="http://www.w3.org/2000/svg" xmlns:xlink="http://www.w3.org/1999/xlink" x="0px" y="0px"
	 width="16px" height="16px" viewBox="0 0 16 16" enable-background="new 0 0 16 16" xml:space="preserve">
<g id="Doc_excel_16">
	<path d="M11,7l-1,1.4L9,7H6.5l2.3,3.2l-2,2.8h2.5l0.8-1.1l1.5,2.1H14l-2.8-3.8L13.5,7H11z M2,14h2v-2H2V14z M1,8h4L4.3,7H0v9h10v-1
		H1V8z M4,9H2v2h2V9z"/>
</g>
<polygon points="16,4 16,16 13,16 13,15 15,15 15,4 12,4 12,1 4,1 4,6 3,6 3,0 12,0 "/>
<polygon points="6.5,10.1 6.5,10.2 5.9,11 5,11 5,9 5.7,9 "/>
</svg>
