<?xml version="1.0" encoding="utf-8"?>
<!-- Generator: Adobe Illustrator 22.1.0, SVG Export Plug-In . SVG Version: 6.00 Build 0)  -->
<svg version="1.1" id="Layer_1" xmlns="http://www.w3.org/2000/svg" xmlns:xlink="http://www.w3.org/1999/xlink" x="0px" y="0px"
	   viewBox="0 0 24 24" style="enable-background:new 0 0 24 24;" xml:space="preserve">
<path d="M18,0H4v4.1L0,4.5v15l4,0.4V24h20V6L18,0z M4.5,16.3L3,8h1.4l0.1,0.4l0.9,5.7L6,11.5L6.7,8h1.6l1.2,6.3L10.6,8H12l-1.7,9
	H8.9l-1.4-6.7L6.1,17H4.6L4.5,16.3z M22,22H6v-1.9l9,0.9v-2h5v-1h-5v-1h5v-1h-5v-1h5v-1h-5v-1h5v-1h-5v-1h5v-1h-5V9h5V8h-5V3L6,3.9
	V2h12v4h4V22z"/>
</svg>
