<?xml version="1.0" encoding="utf-8"?>
<!-- Generator: Adobe Illustrator 21.1.0, SVG Export Plug-In . SVG Version: 6.00 Build 0)  -->
<svg version="1.1" id="Layer_1" xmlns="http://www.w3.org/2000/svg" xmlns:xlink="http://www.w3.org/1999/xlink" x="0px" y="0px"
	   viewBox="0 0 24 24" style="enable-background:new 0 0 24 24;" xml:space="preserve">
<g>
	<path d="M21,10V5.9L15.1,0H3v10H0v9h3v5h18v-5h3v-9H21z M18,14v1h-2v3h-1v-7h4v1h-3v2H18z M5,2h10v4h4v4H5V2z M14,12v5h-1v1H9v-7h4
		v1H14z M4,11h4v4H5v3H4V11z M19,22H5v-3h14V22z"/>
	<rect x="10" y="12" width="3" height="5"/>
	<rect x="5" y="12" width="2" height="2"/>
</g>
</svg>
