<?xml version="1.0" encoding="utf-8"?>
<!-- Generator: Adobe Illustrator 16.0.0, SVG Export Plug-In . SVG Version: 6.00 Build 0)  -->
<!DOCTYPE svg PUBLIC "-//W3C//DTD SVG 1.1//EN" "http://www.w3.org/Graphics/SVG/1.1/DTD/svg11.dtd">
<svg version="1.1" id="Layer_1" xmlns="http://www.w3.org/2000/svg" xmlns:xlink="http://www.w3.org/1999/xlink" x="0px" y="0px"
	 width="16px" height="16px" viewBox="0 0 16 16" enable-background="new 0 0 16 16" xml:space="preserve">
<g id="Doc_User16">
	<path d="M9.75,13.75c-0.605-0.303-1.227-0.609-2.625-1.111C7.933,12.041,8.25,10.754,8.25,9.25c0-2.07-1.343-3.75-3-3.75
		s-3,1.68-3,3.75c0,0.551,0.187,1.305,0.242,1.803c0.133,1.197-1.531,1.01-1.531,1.01l0.563,0.258l-0.351,0.111l0.39,0.161
		l-0.212,0.089l0.53,0.123l-0.232,0.184c0,0,0.146,0.08,0.336,0.188c-0.517,0.221-0.878,0.396-1.234,0.576C0,14.125,0,16,0,16h10.5
		C10.5,16,10.5,14.125,9.75,13.75z M6,15.625H4.5l-0.375-3l0.07-0.641C3.505,11.605,3,10.777,3,9.25C3,8.5,3.82,9.109,4.57,8.359
		c0.52-0.521,1.031-1.828,1.031-1.828C6.75,6.531,7.5,7.593,7.5,9.25c0,1.354-0.509,2.482-1.508,2.857l0.758,0.234L6,15.625z"/>
</g>
<polygon points="16,4 16,16 12,16 12,15 15,15 15,4 12,4 12,1 4,1 4,4 3,4 3,0 12,0 "/>
</svg>
