<?xml version="1.0" encoding="utf-8"?>
<!-- Generator: Adobe Illustrator 16.0.0, SVG Export Plug-In . SVG Version: 6.00 Build 0)  -->
<!DOCTYPE svg PUBLIC "-//W3C//DTD SVG 1.1//EN" "http://www.w3.org/Graphics/SVG/1.1/DTD/svg11.dtd">
<svg version="1.1" id="Layer_1" xmlns="http://www.w3.org/2000/svg" xmlns:xlink="http://www.w3.org/1999/xlink" x="0px" y="0px"
	 width="16px" height="16px" viewBox="0 0 16 16" enable-background="new 0 0 16 16" xml:space="preserve">
<g id="Doc_Unknown16">
	<path d="M6.799,12.999h1.337v-1.326H6.799V12.999z M7.437,6.008c-0.729,0-1.319,0.196-1.768,0.59
		C5.22,6.991,4.978,7.47,4.942,8.033l1.229,0.15C6.256,7.79,6.413,7.498,6.642,7.306c0.229-0.192,0.513-0.288,0.852-0.288
		c0.353,0,0.633,0.092,0.84,0.276c0.208,0.184,0.313,0.405,0.313,0.663c0,0.186-0.059,0.355-0.176,0.51
		c-0.077,0.098-0.31,0.305-0.7,0.619C7.379,9.4,7.12,9.684,6.99,9.936c-0.13,0.252-0.196,0.573-0.196,0.963
		c0,0.037,0.002,0.144,0.005,0.315h1.214c-0.007-0.364,0.024-0.616,0.092-0.759c0.067-0.143,0.243-0.329,0.525-0.563
		c0.546-0.451,0.902-0.807,1.067-1.066c0.168-0.262,0.25-0.538,0.25-0.831c0-0.529-0.227-0.992-0.68-1.391
		C8.813,6.205,8.204,6.008,7.437,6.008z"/>
</g>
<g id="_x31_6_3_">
	<path d="M10,0H1v16h13V4L10,0z M13,15H2V1h8v3h3V15z"/>
</g>
</svg>
