<?xml version="1.0" encoding="utf-8"?>
<!-- Generator: Adobe Illustrator 16.0.0, SVG Export Plug-In . SVG Version: 6.00 Build 0)  -->
<!DOCTYPE svg PUBLIC "-//W3C//DTD SVG 1.1//EN" "http://www.w3.org/Graphics/SVG/1.1/DTD/svg11.dtd">
<svg version="1.1" id="Layer_1" xmlns="http://www.w3.org/2000/svg" xmlns:xlink="http://www.w3.org/1999/xlink" x="0px" y="0px"
	 width="16px" height="16px" viewBox="-1 0 16 16" enable-background="new -1 0 16 16" xml:space="preserve">
<g id="PDF_16">
	<path d="M9.78,9.992c1.453,0.746,2.715,0.909,3.22,0.301c-0.27-0.745-1.511-1.027-3.126-0.828C9.243,9.112,8.566,8.643,7.895,8.074
		c-0.67-0.568-1.246-1.16-1.701-1.726c-0.087-1.642-0.575-2.825-1.35-2.963C4.337,3.995,4.716,5.219,5.695,6.535
		c0.013,0.726-0.052,1.552-0.203,2.423c-0.153,0.871-0.372,1.671-0.631,2.35c-1.364,0.896-2.136,1.916-1.866,2.662
		c0.774,0.138,1.636-0.806,2.274-2.318c0.616-0.374,1.357-0.731,2.182-1.034C8.273,10.314,9.069,10.108,9.78,9.992z M12.218,10.154
		c-0.353,0.079-0.864-0.016-1.468-0.261C11.398,9.871,11.911,9.959,12.218,10.154z M5.116,4.14c0.244,0.27,0.418,0.764,0.509,1.414
		C5.28,4.996,5.099,4.506,5.116,4.14z M3.504,13.356c0.111-0.351,0.447-0.75,0.958-1.153C4.157,12.782,3.827,13.185,3.504,13.356z
		 M5.554,10.891c0.188-0.564,0.348-1.182,0.463-1.839c0.116-0.656,0.175-1.293,0.19-1.888c0.391,0.447,0.841,0.895,1.347,1.322
		c0.507,0.431,1.022,0.799,1.524,1.109c-0.579,0.117-1.188,0.29-1.81,0.517C6.646,10.341,6.074,10.605,5.554,10.891z"/>
</g>
<polygon points="12,8.5 12,4 9,4 9,1 2,1 2,15 12,15 12,12 13,12 13,16 1,16 1,0 9,0 13,4 13,8.5 "/>
</svg>
