<?xml version="1.0" encoding="utf-8"?>
<!-- Generator: Adobe Illustrator 16.0.0, SVG Export Plug-In . SVG Version: 6.00 Build 0)  -->
<!DOCTYPE svg PUBLIC "-//W3C//DTD SVG 1.1//EN" "http://www.w3.org/Graphics/SVG/1.1/DTD/svg11.dtd">
<svg version="1.1" id="Layer_1" xmlns="http://www.w3.org/2000/svg" xmlns:xlink="http://www.w3.org/1999/xlink" x="0px" y="0px"
	 width="16px" height="16px" viewBox="0 0 16 16" enable-background="new 0 0 16 16" xml:space="preserve">
<g id="Doc_outlook16">
	<path d="M11,0H2v6h1V1h8v3h3v11h-2v1h3V4L11,0z M8.5,9.5L7,8L6.5,8.5l2,2L10,9L9.5,8.5L8.5,9.5z M8.5,6C7.106,6,5.913,6.82,5.35,8
		H0v8h10v-3.35c1.18-0.563,2-1.758,2-3.15C12,7.566,10.434,6,8.5,6z M5.051,9C5.026,9.165,5,9.329,5,9.5
		c0,0.967,0.392,1.842,1.025,2.475L5,13L1,9H5.051z M9,15H1v-5l4,4l1.578-1.578C7.131,12.785,7.79,13,8.5,13
		c0.171,0,0.335-0.025,0.5-0.051V15z M8.5,12C7.119,12,6,10.881,6,9.5S7.119,7,8.5,7S11,8.119,11,9.5S9.881,12,8.5,12z"/>
</g>
</svg>
