<?xml version="1.0" encoding="utf-8"?>
<!-- Generator: Adobe Illustrator 18.1.1, SVG Export Plug-In . SVG Version: 6.00 Build 0)  -->
<!DOCTYPE svg PUBLIC "-//W3C//DTD SVG 1.1//EN" "http://www.w3.org/Graphics/SVG/1.1/DTD/svg11.dtd">
<svg version="1.1" id="Layer_1" xmlns="http://www.w3.org/2000/svg" xmlns:xlink="http://www.w3.org/1999/xlink" x="0px" y="0px"
	 viewBox="0 0 16 16" enable-background="new 0 0 16 16" xml:space="preserve">
<path d="M0,6v7h15V6H0z M4,8H2v3h2v1H1V7h3V8z M8,8H6v1h2v3H5v-1h2v-1H5V7h3V8z"/>
<polygon points="14,14 14,16 1,16 1,14 2,14 2,15 13,15 13,14 "/>
<polygon points="14,4 14,5 13,5 13,4 10,4 10,1 2,1 2,5 1,5 1,0 10,0 "/>
<rect x="11" y="11" fill="#FFFFFF" width="1" height="1"/>
<rect x="12" y="9" fill="#FFFFFF" width="1" height="2"/>
<polyline fill="#FFFFFF" points="11,9 11,11 10,11 10,9 "/>
<polyline fill="#FFFFFF" points="9,9 9,7 10,7 10,9 "/>
<rect x="13" y="7" fill="#FFFFFF" width="1" height="2"/>
</svg>
