<?xml version="1.0" encoding="utf-8"?>
<!-- Generator: Adobe Illustrator 22.1.0, SVG Export Plug-In . SVG Version: 6.00 Build 0)  -->
<svg version="1.1" id="Layer_1" xmlns="http://www.w3.org/2000/svg" xmlns:xlink="http://www.w3.org/1999/xlink" x="0px" y="0px"
	   viewBox="0 0 16 16" style="enable-background:new 0 0 16 16;" xml:space="preserve">
<path d="M12,0H3v2.7L0,3v10l3,0.3V16h13V4L12,0z M3,10.5L2,5h1l0,0.3l0.6,3.8L4,7.3L4.5,5h1.1l0.8,4.2L7.1,5H8l-1.1,6h-1L5,6.5
	L4.1,11h-1L3,10.5z M15,15H4v-1.6l6,0.6v-1h4v-1h-4v-1h4v-1h-4V9h4V8h-4V7h4V6h-4V2L4,2.6V1h8v3h3V15z"/>
</svg>
