<?xml version="1.0" encoding="utf-8"?>
<!-- Generator: Adobe Illustrator 16.0.0, SVG Export Plug-In . SVG Version: 6.00 Build 0)  -->
<!DOCTYPE svg PUBLIC "-//W3C//DTD SVG 1.1//EN" "http://www.w3.org/Graphics/SVG/1.1/DTD/svg11.dtd">
<svg version="1.1" id="Layer_1" xmlns="http://www.w3.org/2000/svg" xmlns:xlink="http://www.w3.org/1999/xlink" x="0px" y="0px"
	 width="16px" height="16px" viewBox="0 0 16 16" enable-background="new 0 0 16 16" xml:space="preserve">
<g id="Doc_Office_16">
	<path d="M5,4H1C0.447,4,0,4.447,0,5v4c0,0.553,0.447,1,1,1h3V9H1.5C1.224,9,1,8.775,1,8.5v-3C1,5.225,1.224,5,1.5,5h3
		C4.776,5,5,5.225,5,5.5V8h1V5C6,4.447,5.553,4,5,4z M10,11H9v1h0.5c0.275,0,0.5,0.225,0.5,0.5v1c0,0.275-0.225,0.5-0.5,0.5h-1
		C8.225,14,8,13.775,8,13.5V13H7v1c0,0.553,0.447,1,1,1h2c0.553,0,1-0.447,1-1v-2C11,11.447,10.553,11,10,11z M5,12h1v-1H5V12z
		 M5,14.5C5,14.775,4.776,15,4.5,15h-2C2.224,15,2,14.775,2,14.5v-2C2,12.225,2.224,12,2.5,12H4v-1H2c-0.553,0-1,0.447-1,1v3
		c0,0.553,0.447,1,1,1h3c0.553,0,1-0.447,1-1v-2H5V14.5z M5,10h1V9H5V10z M11,0H2v3h1V1h8v3h3v11h-2v1h3V4L11,0z M10,9V8
		c0-0.553-0.447-1-1-1H8C7.447,7,7,7.447,7,8h1.5C8.775,8,9,8.225,9,8.5V10C9.553,10,10,9.553,10,9z M7,10h1V9H7V10z M7,12h1v-1H7
		V12z"/>
</g>
</svg>
