<?xml version="1.0" encoding="utf-8"?>
<!-- Generator: Adobe Illustrator 16.0.0, SVG Export Plug-In . SVG Version: 6.00 Build 0)  -->
<!DOCTYPE svg PUBLIC "-//W3C//DTD SVG 1.1//EN" "http://www.w3.org/Graphics/SVG/1.1/DTD/svg11.dtd">
<svg version="1.1" id="Layer_1" xmlns="http://www.w3.org/2000/svg" xmlns:xlink="http://www.w3.org/1999/xlink" x="0px" y="0px"
	 width="16px" height="16px" viewBox="0 0 16 16" enable-background="new 0 0 16 16" xml:space="preserve">
<polygon points="14,14.002 14,16 1,16 1,14.002 2,14.002 2,15.002 13.002,15.002 13.002,14.002 "/>
<polygon points="14,4 14,6 13.002,6 13.002,4 10.002,4 10.002,1 2,1 2,6 1,6 1,0 10,0 "/>
<g enable-background="new    ">
	<path d="M0.04,11.994V7.999h0.867v1.57h1.699v-1.57h0.867v3.995H2.606v-1.748H0.907v1.749H0.04z"/>
	<path d="M5.336,11.994V8.675H4.062V7.999h3.413v0.676H6.204v3.319H5.336z"/>
	<path d="M8.023,11.994V7.999H9.32l0.779,2.725l0.771-2.725h1.301v3.995h-0.808V8.849l-0.852,3.146H9.678l-0.85-3.146v3.146H8.023z"
		/>
	<path d="M13.057,11.994V8.032h0.867v3.288h1.557v0.676L13.057,11.994L13.057,11.994z"/>
</g>
</svg>
