<?xml version="1.0" encoding="utf-8"?>
<!-- Generator: Adobe Illustrator 16.0.0, SVG Export Plug-In . SVG Version: 6.00 Build 0)  -->
<!DOCTYPE svg PUBLIC "-//W3C//DTD SVG 1.1//EN" "http://www.w3.org/Graphics/SVG/1.1/DTD/svg11.dtd">
<svg version="1.1" id="Layer_1" xmlns="http://www.w3.org/2000/svg" xmlns:xlink="http://www.w3.org/1999/xlink" x="0px" y="0px"
	 width="15.998px" height="15.998px" viewBox="0.003 0 15.998 15.998" enable-background="new 0.003 0 15.998 15.998"
	 xml:space="preserve">
<path d="M12.974,15.002H1.963v-1H0.968V16H13.97v-1.998h-0.996V15.002z M9.976,0.001H0.973v5.998h0.995V1h8.006v3h3v1.999h0.998V4
	L9.976,0.001z"/>
<g>
	<path d="M0.958,11.994l1.468-2.089l-1.33-1.914h1.014l0.861,1.286l0.844-1.286h1.005L3.483,9.936l1.468,2.059H3.905l-0.952-1.385
		l-0.955,1.385H0.958z"/>
	<path d="M5.385,11.994V7.992h1.298l0.779,2.73l0.774-2.73h1.3v4.002H8.731V8.843l-0.856,3.151H7.04L6.19,8.843v3.151H5.385z"/>
	<path d="M10.423,11.994V8.025h0.867v3.294h2.156v0.675H10.423z"/>
</g>
</svg>
