<?xml version="1.0" encoding="utf-8"?>
<!-- Generator: Adobe Illustrator 22.0.1, SVG Export Plug-In . SVG Version: 6.00 Build 0)  -->
<svg version="1.1" id="Layer_1" xmlns="http://www.w3.org/2000/svg" xmlns:xlink="http://www.w3.org/1999/xlink" x="0px" y="0px"
	 viewBox="0 0 16 16" style="enable-background:new 0 0 16 16;" xml:space="preserve">
<path d="M15.9,9c-0.2,1.5-0.8,2.8-1.6,3.9L13.1,12c0.7-0.9,1.2-2,1.3-3.2L15.9,9z"/>
<path d="M15.9,7l-1.5,0.2C14.3,6,13.8,4.9,13.1,4l1.2-0.9C15.2,4.2,15.8,5.5,15.9,7z"/>
<path d="M12.9,1.7L12,2.9c-0.9-0.7-2-1.2-3.2-1.3L9,0.1C10.5,0.2,11.8,0.8,12.9,1.7z"/>
<path d="M12.9,14.3C11.5,15.4,9.8,16,8,16c-4.4,0-8-3.6-8-8c0-4.1,3.1-7.5,7-7.9l0.2,1.5C4,2,1.5,4.7,1.5,8c0,3.6,2.9,6.5,6.5,6.5
	c1.5,0,2.9-0.5,4-1.4L12.9,14.3z"/>
<polygon points="11.8,10.4 10.4,11.8 7,8.4 7,3 9,3 9,7.6 "/>
</svg>
