<?xml version="1.0" encoding="utf-8"?>
<!-- Generator: Adobe Illustrator 18.1.1, SVG Export Plug-In . SVG Version: 6.00 Build 0)  -->
<!DOCTYPE svg PUBLIC "-//W3C//DTD SVG 1.1//EN" "http://www.w3.org/Graphics/SVG/1.1/DTD/svg11.dtd">
<svg version="1.1" id="Layer_1" xmlns="http://www.w3.org/2000/svg" xmlns:xlink="http://www.w3.org/1999/xlink" x="0px" y="0px"
	 viewBox="0 0 16 16" enable-background="new 0 0 16 16" xml:space="preserve">
<g>
	<path d="M8,2v2H1V2H8 M9,1H0v4h9V1L9,1z"/>
</g>
<g>
	<path d="M8,7v2H1V7H8 M9,6H0v4h9V6L9,6z"/>
</g>
<g>
	<path d="M8,12v2H1v-2H8 M9,11H0v4h9V11L9,11z"/>
</g>
<polygon points="10,3 13,0 16,3 14,3 14,6 12,6 12,3 "/>
<polygon points="16,13 13,16 10,13 12,13 12,10 14,10 14,13 "/>
</svg>
