<?xml version="1.0" encoding="utf-8"?>
<!-- Generator: Adobe Illustrator 19.2.1, SVG Export Plug-In . SVG Version: 6.00 Build 0)  -->
<svg version="1.1" id="Layer_1" xmlns="http://www.w3.org/2000/svg" xmlns:xlink="http://www.w3.org/1999/xlink" x="0px" y="0px"
	   viewBox="0 0 24 24" style="enable-background:new 0 0 24 24;" xml:space="preserve">
<rect x="16" y="18" width="6" height="4"/>
<polygon points="16,14 16,18 6,18 6,14 2,14 2,6 4,6 4,10 6,10 6,6 8,6 8,10 10,10 10,6 8,6 8,2 14,2 14,6 12,6 12,10 14,10 14,6 
	16,6 16,10 18,10 18,6 20,6 20,14 "/>
<rect y="18" width="6" height="4"/>
</svg>
