<?xml version="1.0" encoding="utf-8"?>
<!-- Generator: Adobe Illustrator 16.0.0, SVG Export Plug-In . SVG Version: 6.00 Build 0)  -->
<!DOCTYPE svg PUBLIC "-//W3C//DTD SVG 1.1//EN" "http://www.w3.org/Graphics/SVG/1.1/DTD/svg11.dtd">
<svg version="1.1" id="Layer_1" xmlns="http://www.w3.org/2000/svg" xmlns:xlink="http://www.w3.org/1999/xlink" x="0px" y="0px"
	 width="16px" height="16px" viewBox="0 0 16 16" enable-background="new 0 0 16 16" xml:space="preserve">
<path d="M15,1v14H1V1H15 M16,0H0v16h16V0L16,0z"/>
<polygon points="7,6.3 6.3,7 3,3.7 3,6 2,6 2,2 6,2 6,3 3.7,3 "/>
<polygon points="9.7,7 9,6.3 12.3,3 10,3 10,2 14,2 14,6 13,6 13,3.7 "/>
<polygon points="9,9.7 9.7,9 13,12.3 13,10 14,10 14,14 10,14 10,13 12.3,13 "/>
<polygon points="6.3,9 7,9.7 3.7,13 6,13 6,14 2,14 2,10 3,10 3,12.3 "/>
</svg>
