<?xml version="1.0" encoding="utf-8"?>
<!-- Generator: Adobe Illustrator 20.1.0, SVG Export Plug-In . SVG Version: 6.00 Build 0)  -->
<svg version="1.1" id="Layer_1" xmlns="http://www.w3.org/2000/svg" xmlns:xlink="http://www.w3.org/1999/xlink" x="0px" y="0px"
	   viewBox="0 0 16 16" style="enable-background:new 0 0 16 16;" xml:space="preserve">
<g>
	<path d="M15.698,7.287L8.713,0.302C8.31-0.1,7.658-0.1,7.255,0.302l-1.45,1.451l1.84,1.84c0.428-0.145,0.918-0.048,1.259,0.293
		c0.343,0.343,0.439,0.838,0.291,1.267l1.774,1.773c0.429-0.148,0.924-0.052,1.267,0.291c0.479,0.479,0.479,1.255,0,1.734
		c-0.479,0.479-1.255,0.479-1.734,0c-0.36-0.36-0.449-0.89-0.267-1.333L8.579,5.964v4.353c0.117,0.058,0.227,0.135,0.324,0.232
		c0.479,0.479,0.479,1.255,0,1.734c-0.479,0.479-1.255,0.479-1.734,0c-0.479-0.48-0.479-1.255,0-1.734
		c0.118-0.118,0.255-0.208,0.402-0.268V5.888C7.425,5.828,7.289,5.739,7.17,5.62c-0.363-0.363-0.45-0.895-0.264-1.34L5.092,2.465
		l-4.79,4.79c-0.402,0.403-0.402,1.055,0,1.458l6.986,6.986c0.402,0.402,1.054,0.402,1.457,0l6.953-6.953
		C16.101,8.343,16.101,7.69,15.698,7.287z"/>
</g>
</svg>
