<?xml version="1.0" encoding="utf-8"?>
<!-- Generator: Adobe Illustrator 17.1.0, SVG Export Plug-In . SVG Version: 6.00 Build 0)  -->
<!DOCTYPE svg PUBLIC "-//W3C//DTD SVG 1.1//EN" "http://www.w3.org/Graphics/SVG/1.1/DTD/svg11.dtd">
<svg version="1.1" id="Layer_1" xmlns="http://www.w3.org/2000/svg" xmlns:xlink="http://www.w3.org/1999/xlink" x="0px" y="0px"
	 viewBox="0 0 16 16" enable-background="new 0 0 16 16" xml:space="preserve">
<g>
	<g>
		<path d="M16,2c0,0.55-0.45,1-1,1c-0.09,0-0.17-0.01-0.25-0.04l-3.79,3.79C10.99,6.83,11,6.91,11,7c0,0.55-0.45,1-1,1
			C9.47,8,9.03,7.58,9.01,7.06L6.55,5.84C6.39,5.94,6.2,6,6,6C5.91,6,5.83,5.99,5.75,5.96L1.96,9.75C1.99,9.83,2,9.91,2,10
			c0,0.55-0.45,1-1,1s-1-0.45-1-1s0.45-1,1-1c0.09,0,0.17,0.01,0.25,0.04l3.79-3.79C5.01,5.17,5,5.09,5,5c0-0.55,0.45-1,1-1
			c0.53,0,0.97,0.42,0.99,0.94l2.46,1.22C9.61,6.06,9.8,6,10,6c0.09,0,0.17,0.01,0.25,0.04l3.79-3.79C14.01,2.17,14,2.09,14,2
			c0-0.55,0.45-1,1-1S16,1.45,16,2z"/>
	</g>
</g>
<g>
	<g>
		<path d="M16,10c0,0.55-0.45,1-1,1c-0.1,0-0.2-0.02-0.29-0.05L11,13.02C10.99,13.56,10.54,14,10,14c-0.53,0-0.96-0.41-0.99-0.93
			l-2.46-1.23C6.39,11.94,6.2,12,6,12c-0.13,0-0.25-0.02-0.36-0.07l-3.66,2.92C2,14.9,2,14.95,2,15c0,0.55-0.45,1-1,1s-1-0.45-1-1
			s0.45-1,1-1c0.13,0,0.25,0.02,0.36,0.07l3.65-2.92C5,11.1,5,11.05,5,11c0-0.55,0.45-1,1-1c0.53,0,0.97,0.42,0.99,0.94l2.46,1.22
			C9.61,12.06,9.8,12,10,12c0.19,0,0.36,0.05,0.51,0.14l3.51-1.95C14.01,10.13,14,10.07,14,10c0-0.55,0.45-1,1-1S16,9.45,16,10z"/>
	</g>
</g>
</svg>
