<?xml version="1.0" encoding="utf-8"?>
<!-- Generator: Adobe Illustrator 19.2.1, SVG Export Plug-In . SVG Version: 6.00 Build 0)  -->
<svg version="1.1" id="Layer_1" xmlns="http://www.w3.org/2000/svg" xmlns:xlink="http://www.w3.org/1999/xlink" x="0px" y="0px"
	   viewBox="0 0 16 16" style="enable-background:new 0 0 16 16;" xml:space="preserve">
<rect width="2" height="2"/>
<rect x="14" width="2" height="2"/>
<rect x="4" width="1" height="1"/>
<rect x="7" width="2" height="1"/>
<rect x="11" width="1" height="1"/>
<rect y="14" width="2" height="2"/>
<rect x="14" y="14" width="2" height="2"/>
<rect x="4" y="15" width="1" height="1"/>
<rect x="7" y="15" width="2" height="1"/>
<rect x="11" y="15" width="1" height="1"/>
<rect y="4" width="1" height="1"/>
<rect y="7" width="1" height="2"/>
<rect y="11" width="1" height="1"/>
<rect x="15" y="4" width="1" height="1"/>
<rect x="15" y="7" width="1" height="2"/>
<rect x="15" y="11" width="1" height="1"/>
<rect x="3" y="4" width="10" height="2"/>
<rect x="3" y="7" width="10" height="2"/>
<rect x="3" y="10" width="10" height="2"/>
</svg>
