<?xml version="1.0" encoding="utf-8"?>
<!-- Generator: Adobe Illustrator 20.1.0, SVG Export Plug-In . SVG Version: 6.00 Build 0)  -->
<svg version="1.1" id="Layer_1" xmlns="http://www.w3.org/2000/svg" xmlns:xlink="http://www.w3.org/1999/xlink" x="0px" y="0px"
	   viewBox="0 0 16 16" style="enable-background:new 0 0 16 16;" xml:space="preserve">
<g>
	<path d="M8,0C3.58,0,0,3.58,0,8s3.58,8,8,8s8-3.58,8-8S12.42,0,8,0z M8,1.5c1.43,0,2.75,0.46,3.82,1.26l-9.06,9.06
		C1.96,10.75,1.5,9.43,1.5,8C1.5,4.42,4.42,1.5,8,1.5z M8,14.5c-1.43,0-2.75-0.46-3.82-1.26l9.06-9.06C14.04,5.25,14.5,6.57,14.5,8
		C14.5,11.58,11.58,14.5,8,14.5z"/>
</g>
</svg>
