<?xml version="1.0" encoding="utf-8"?>
<!-- Generator: Adobe Illustrator 22.0.0, SVG Export Plug-In . SVG Version: 6.00 Build 0)  -->
<svg version="1.1" id="Layer_1" xmlns="http://www.w3.org/2000/svg" xmlns:xlink="http://www.w3.org/1999/xlink" x="0px" y="0px"
	 viewBox="0 0 16 16" style="enable-background:new 0 0 16 16;" xml:space="preserve">
<path d="M16,8c0,0-3,5-8,5c-0.9,0-1.7-0.2-2.4-0.4l1.2-1.3c0.4,0.1,0.8,0.2,1.2,0.2c1.9,0,3.5-1.6,3.5-3.5c0-0.5-0.1-1-0.3-1.4
	l1.7-1.9C14.9,6.2,16,8,16,8z"/>
<path d="M10.4,3.4L9.2,4.7C8.8,4.6,8.4,4.5,8,4.5C6.1,4.5,4.5,6.1,4.5,8c0,0.5,0.1,1,0.3,1.4l-1.7,1.9C1.1,9.8,0,8,0,8s3-5,8-5
	C8.9,3,9.7,3.2,10.4,3.4z"/>
<path d="M8.4,5.5L5.6,8.6c0-0.2-0.1-0.4-0.1-0.6c0-1.4,1.1-2.5,2.5-2.5C8.2,5.5,8.3,5.5,8.4,5.5z"/>
<path d="M10.5,8c0,1.4-1.1,2.5-2.5,2.5c-0.2,0-0.3,0-0.4,0l2.9-3.1C10.5,7.6,10.5,7.8,10.5,8z"/>
<polygon points="1,16 0,16 15,0 16,0 "/>
</svg>
