<?xml version="1.0" encoding="utf-8"?>
<!-- Generator: Adobe Illustrator 21.1.0, SVG Export Plug-In . SVG Version: 6.00 Build 0)  -->
<svg version="1.1" id="Layer_1" xmlns="http://www.w3.org/2000/svg" xmlns:xlink="http://www.w3.org/1999/xlink" x="0px" y="0px"
	 viewBox="0 0 16 16" style="enable-background:new 0 0 16 16;" xml:space="preserve">
<g>
	<rect x="5" y="13" width="2" height="2"/>
	<rect x="1" y="13" width="2" height="2"/>
	<rect x="5" y="9" width="2" height="2"/>
	<rect x="1" y="9" width="2" height="2"/>
	<rect x="13" y="5" width="2" height="2"/>
	<rect x="9" y="5" width="2" height="2"/>
	<rect x="5" y="5" width="2" height="2"/>
	<rect x="1" y="5" width="2" height="2"/>
	<rect x="13" y="1" width="2" height="2"/>
	<rect x="9" y="1" width="2" height="2"/>
	<rect x="5" y="1" width="2" height="2"/>
	<rect x="1" y="1" width="2" height="2"/>
</g>
<path d="M10,8v8h6V8H10z M12.88,15c-0.3,0-0.58-0.04-0.84-0.1c-0.39-0.09-0.73-0.23-0.97-0.39v-1.19c0.5,0.38,1.14,0.64,1.79,0.64
	c0.21,0,0.39-0.02,0.55-0.08h0.01c0.22-0.08,0.37-0.21,0.41-0.42c0.02-0.04,0.02-0.08,0.02-0.13c0-0.38-0.24-0.53-0.65-0.69
	l-0.82-0.28c-0.34-0.12-0.64-0.26-0.87-0.47C11.19,11.62,11,11.23,11,10.67c0-0.41,0.12-0.74,0.34-1C11.7,9.23,12.3,9,12.99,9
	c0.68,0,1.24,0.17,1.69,0.45v1.19c-0.48-0.37-1.01-0.61-1.66-0.61c-0.45,0-0.8,0.15-0.86,0.47c-0.02,0.03-0.02,0.07-0.02,0.11
	c0,0.21,0.07,0.34,0.21,0.44c0.1,0.08,0.24,0.13,0.41,0.19l0.87,0.32c0.52,0.18,0.88,0.42,1.1,0.75c0.18,0.26,0.27,0.58,0.27,0.97
	C15,14.42,14.06,15,12.88,15z"/>
</svg>
