<?xml version="1.0" encoding="utf-8"?>
<!-- Generator: Adobe Illustrator 18.0.0, SVG Export Plug-In . SVG Version: 6.00 Build 0)  -->
<!DOCTYPE svg PUBLIC "-//W3C//DTD SVG 1.1//EN" "http://www.w3.org/Graphics/SVG/1.1/DTD/svg11.dtd">
<svg version="1.1" id="Layer_1" xmlns="http://www.w3.org/2000/svg" xmlns:xlink="http://www.w3.org/1999/xlink" x="0px" y="0px"
	 width="500px" height="500px" viewBox="0 0 500 500" enable-background="new 0 0 500 500" xml:space="preserve">
<path d="M437.5,0h-375C28.25,0,0,28.25,0,62.5v375C0,471.75,28.25,500,62.5,500h375c34.25,0,62.5-28.25,62.5-62.5v-375
	C500,28.25,471.75,0,437.5,0z M156.25,406.25h-62.5v-250h62.5V406.25z M156.25,125h-62.5V62.5h62.5V125z M406.25,406.25h-62.5V271.5
	c0-37.5-10.25-57.75-39-57.75c-54.75,0-54.75,39-54.75,54.5v138h-62.5v-250H250v46.25c0,0,20.5-53,82-53
	c47.75,0,74.5,42.25,74.5,108.75v148H406.25z"/>
</svg>
