<?xml version="1.0" encoding="utf-8"?>
<!-- Generator: Adobe Illustrator 19.2.1, SVG Export Plug-In . SVG Version: 6.00 Build 0)  -->
<svg version="1.1" id="Layer_1" xmlns="http://www.w3.org/2000/svg" xmlns:xlink="http://www.w3.org/1999/xlink" x="0px" y="0px"
	   viewBox="0 0 16 16" style="enable-background:new 0 0 16 16;" xml:space="preserve">
<g id="related_16">
	<path d="M15,1.4L14.6,1c-1.3-1.3-3.5-1.3-4.8,0l-4,4c-1.3,1.3-1.3,3.5,0,4.8l0.4,0.4c0.1,0.1,0.3,0.3,0.4,0.4l1.2-1.2
		C7.7,9.2,7.5,9.1,7.4,9L7,8.6C6.3,7.9,6.3,6.9,7,6.2l4-4c0.7-0.7,1.7-0.7,2.4,0l0.4,0.4c0.7,0.7,0.7,1.7,0,2.4l-1.4,1.4
		c0.3,0.7,0.4,1.4,0.3,2.1L15,6.2C16.3,4.9,16.3,2.7,15,1.4z M9.8,5.8C9.7,5.7,9.5,5.5,9.3,5.4L8.1,6.7C8.3,6.8,8.4,6.9,8.6,7L9,7.4
		c0.7,0.7,0.7,1.7,0,2.4l-4,4c-0.7,0.7-1.7,0.7-2.4,0l-0.4-0.4c-0.7-0.7-0.7-1.7,0-2.4L4,9.2C3.7,8.5,3.6,7.8,3.7,7.1L1,9.8
		c-1.3,1.3-1.3,3.5,0,4.8L1.4,15c1.3,1.3,3.5,1.3,4.8,0l4-4c1.3-1.3,1.3-3.5,0-4.8L9.8,5.8z"/>
</g>
</svg>
