<?xml version="1.0" encoding="utf-8"?>
<!-- Generator: Adobe Illustrator 19.0.0, SVG Export Plug-In . SVG Version: 6.00 Build 0)  -->
<svg version="1.1" id="Layer_1" xmlns="http://www.w3.org/2000/svg" xmlns:xlink="http://www.w3.org/1999/xlink" x="0px" y="0px"
	   viewBox="0 0 16 16" enable-background="new 0 0 16 16" xml:space="preserve">
<rect x="6" y="1" width="10" height="2"/>
<rect x="6" y="7" width="10" height="2"/>
<rect x="6" y="13" width="10" height="2"/>
<g>
	<path d="M3.881,9.425v0.783H0.927c0.032-0.296,0.128-0.576,0.288-0.842c0.16-0.265,0.476-0.616,0.948-1.054
		c0.38-0.354,0.612-0.594,0.698-0.72c0.116-0.174,0.174-0.346,0.174-0.516c0-0.188-0.05-0.332-0.152-0.433
		c-0.1-0.101-0.24-0.151-0.418-0.151c-0.176,0-0.316,0.053-0.42,0.159c-0.104,0.106-0.164,0.282-0.18,0.528L1.026,7.094
		c0.05-0.464,0.207-0.797,0.471-0.999c0.264-0.202,0.594-0.303,0.99-0.303c0.434,0,0.774,0.117,1.022,0.351
		c0.248,0.234,0.372,0.525,0.372,0.873c0,0.198-0.036,0.386-0.106,0.565C3.703,7.76,3.591,7.948,3.437,8.144
		c-0.102,0.13-0.286,0.317-0.552,0.561S2.451,9.111,2.379,9.191c-0.07,0.08-0.128,0.158-0.172,0.234H3.881z"/>
</g>
<g>
	<path d="M1.005,14.758l0.816-0.099c0.026,0.208,0.096,0.367,0.21,0.477s0.252,0.165,0.414,0.165c0.174,0,0.32-0.066,0.438-0.198
		c0.12-0.132,0.18-0.31,0.18-0.534c0-0.212-0.058-0.38-0.172-0.504c-0.114-0.124-0.252-0.186-0.416-0.186
		c-0.108,0-0.238,0.021-0.388,0.063l0.094-0.687c0.228,0.006,0.402-0.043,0.522-0.149c0.12-0.104,0.18-0.244,0.18-0.418
		c0-0.148-0.044-0.266-0.132-0.354c-0.088-0.088-0.206-0.132-0.352-0.132c-0.144,0-0.266,0.05-0.368,0.15s-0.164,0.246-0.186,0.438
		l-0.777-0.132c0.054-0.266,0.135-0.478,0.244-0.638c0.109-0.158,0.261-0.284,0.456-0.374c0.195-0.092,0.413-0.137,0.655-0.137
		c0.414,0,0.746,0.132,0.996,0.396c0.206,0.216,0.31,0.46,0.31,0.732c0,0.386-0.212,0.694-0.634,0.924
		c0.252,0.054,0.454,0.175,0.604,0.363c0.152,0.188,0.228,0.415,0.228,0.681c0,0.386-0.142,0.715-0.424,0.987S2.871,16,2.451,16
		c-0.398,0-0.728-0.114-0.99-0.343C1.199,15.428,1.047,15.128,1.005,14.758z"/>
</g>
<g>
	<path d="M2.935,4.415H2.093V1.239C1.785,1.527,1.421,1.74,1.003,1.878V1.113c0.22-0.072,0.46-0.208,0.718-0.409
		S2.155,0.268,2.251,0h0.684V4.415z"/>
</g>
</svg>
