<?xml version="1.0" encoding="utf-8"?>
<!-- Generator: Adobe Illustrator 21.1.0, SVG Export Plug-In . SVG Version: 6.00 Build 0)  -->
<svg version="1.1" id="Layer_1" xmlns="http://www.w3.org/2000/svg" xmlns:xlink="http://www.w3.org/1999/xlink" x="0px" y="0px"
	   viewBox="0 0 16 16" style="enable-background:new 0 0 16 16;" xml:space="preserve">
<path d="M8,3C5.931,3,4.25,4.681,4.25,6.75C4.25,9.931,8,13,8,13s3.75-3.144,3.75-6.25C11.75,4.681,10.069,3,8,3z M8,8.625
	c-1.037,0-1.875-0.838-1.875-1.875S6.963,4.875,8,4.875S9.875,5.713,9.875,6.75S9.038,8.625,8,8.625z"/>
<g>
	<path d="M15,1v14H1V1H15 M16,0h-1H1H0v1v14v1h1h14h1v-1V1V0L16,0z"/>
</g>
</svg>
