<?xml version="1.0" encoding="utf-8"?>
<!-- Generator: Adobe Illustrator 17.1.0, SVG Export Plug-In . SVG Version: 6.00 Build 0)  -->
<!DOCTYPE svg PUBLIC "-//W3C//DTD SVG 1.1//EN" "http://www.w3.org/Graphics/SVG/1.1/DTD/svg11.dtd">
<svg version="1.1" id="Layer_1" xmlns="http://www.w3.org/2000/svg" xmlns:xlink="http://www.w3.org/1999/xlink" x="0px" y="0px"
	 width="16px" height="16px" viewBox="0 0 16 16" enable-background="new 0 0 16 16" xml:space="preserve">
<g>
	<g>
		<path d="M14,7h-1V5c0-2.8-2.2-5-5-5S3,2.2,3,5v2H2C1.5,7,1,7.5,1,8v7c0,0.5,0.5,1,1,1h12c0.5,0,1-0.5,1-1V8C15,7.5,14.5,7,14,7z
			 M11,7H5V5c0-1.7,1.3-3,3-3s3,1.3,3,3V7z"/>
	</g>
</g>
</svg>
