<?xml version="1.0" encoding="utf-8"?>
<!-- Generator: Adobe Illustrator 22.1.0, SVG Export Plug-In . SVG Version: 6.00 Build 0)  -->
<svg version="1.1" id="Layer_1" xmlns="http://www.w3.org/2000/svg" xmlns:xlink="http://www.w3.org/1999/xlink" x="0px" y="0px"
	   viewBox="0 0 16 16" style="enable-background:new 0 0 16 16;" xml:space="preserve">
<path d="M16,6v4c0,2.209-1.791,4-4,4H4c-2.209,0-4-1.791-4-4V6c0-2.209,1.791-4,4-4h2L5,3l1,1H4C2.895,4,2,4.895,2,6v4
	c0,1.105,0.895,2,2,2h8c1.105,0,2-0.895,2-2V6c0-1.105-0.895-2-2-2h-2v2L7,3l3-3v2h2C14.209,2,16,3.791,16,6z"/>
</svg>
