<?xml version="1.0" encoding="utf-8"?>
<!-- Generator: Adobe Illustrator 21.1.0, SVG Export Plug-In . SVG Version: 6.00 Build 0)  -->
<svg version="1.1" id="Layer_1" xmlns="http://www.w3.org/2000/svg" xmlns:xlink="http://www.w3.org/1999/xlink" x="0px" y="0px"
	   viewBox="0 0 16 16" style="enable-background:new 0 0 16 16;" xml:space="preserve">
<path d="M12,0H4C3.45,0,3,0.45,3,1v14c0,0.55,0.45,1,1,1h8c0.55,0,1-0.45,1-1V1C13,0.45,12.55,0,12,0z M12,14H4V2h8V14z"/>
<path d="M10.71,6.7c-0.01,0-0.01,0-0.01,0s0,0,0-0.01c0,0,0,0,0-0.01h-0.01V6.67c0-0.01,0-0.01,0-0.01h-0.01c0-0.01,0-0.01,0-0.01
	c0-0.01,0-0.01-0.01-0.01c0,0,0,0,0-0.01s-0.01-0.01-0.01-0.01c0-0.01,0-0.01,0-0.01c-0.07-0.12-0.14-0.24-0.22-0.36L9.63,6.83
	c0.06,0.1,0.12,0.2,0.17,0.31c0.48,0.99,0.06,2.19-0.94,2.66C8.59,9.93,8.3,10,8,10c-0.09,0-0.19-0.01-0.28-0.02l-0.14,0.99
	C7.7,10.99,7.82,11,7.94,11h0.03c0,0,0,0,0.01,0c0,0,0,0,0.01,0c0,0,0,0,0.01,0c0.44,0,0.88-0.09,1.3-0.29C10.37,10.19,11,9.12,11,8
	C11,7.56,10.91,7.12,10.71,6.7z"/>
<path d="M8.84,5.12L8.56,6.08C8.38,6.03,8.19,6,8,6C7.7,6,7.41,6.07,7.14,6.2c-1,0.47-1.42,1.67-0.94,2.66
	c0.09,0.2,0.21,0.37,0.35,0.52l-0.72,0.69C5.64,9.88,5.48,9.65,5.34,9.4c0-0.01,0-0.01,0-0.01s0,0,0-0.01
	c-0.01,0-0.01-0.01-0.01-0.02H5.32V9.34c-0.01,0-0.01-0.01-0.01-0.01s0,0,0-0.01c-0.01,0-0.01,0-0.01,0s0,0,0-0.01s0-0.01,0-0.01
	s0,0-0.01,0C5.09,8.88,5,8.44,5,8c0-1.12,0.63-2.19,1.7-2.71C7.12,5.09,7.56,5,8,5C8.29,5,8.57,5.04,8.84,5.12z"/>
</svg>
