<?xml version="1.0" encoding="utf-8"?>
<!-- Generator: Adobe Illustrator 18.1.1, SVG Export Plug-In . SVG Version: 6.00 Build 0)  -->
<!DOCTYPE svg PUBLIC "-//W3C//DTD SVG 1.1//EN" "http://www.w3.org/Graphics/SVG/1.1/DTD/svg11.dtd">
<svg version="1.1" id="Layer_1" xmlns="http://www.w3.org/2000/svg" xmlns:xlink="http://www.w3.org/1999/xlink" x="0px" y="0px"
	   viewBox="0 0 24 24" enable-background="new 0 0 24 24" xml:space="preserve">
<polyline display="none" fill="#FFFFFF" stroke="#000000" stroke-width="3" stroke-linejoin="round" stroke-miterlimit="10" points="
	26,12 33,12 36,5 40,19 43,12 50,12 "/>
<path d="M24,10.003v3h-6.01l-2.61,6.09c-0.24,0.55-0.78,0.91-1.38,0.91h-0.09c-0.64-0.04-1.18-0.48-1.35-1.09l-2.84-9.94l-1.34,3.12
	c-0.24,0.55-0.78,0.91-1.38,0.91H0v-3h6.01l2.61-6.09c0.25-0.58,0.84-0.95,1.47-0.91c0.64,0.04,1.18,0.48,1.35,1.09l2.84,9.94
	l1.34-3.12c0.24-0.55,0.78-0.91,1.38-0.91H24z"/>
</svg>
