<?xml version="1.0" encoding="utf-8"?>
<!-- Generator: Adobe Illustrator 18.0.0, SVG Export Plug-In . SVG Version: 6.00 Build 0)  -->
<!DOCTYPE svg PUBLIC "-//W3C//DTD SVG 1.1//EN" "http://www.w3.org/Graphics/SVG/1.1/DTD/svg11.dtd">
<svg version="1.1" id="Layer_1" xmlns="http://www.w3.org/2000/svg" xmlns:xlink="http://www.w3.org/1999/xlink" x="0px" y="0px"
	   viewBox="0 0 16 16" enable-background="new 0 0 16 16" xml:space="preserve">
<path d="M10,14c0,1.1-0.9,2-2,2s-2-0.9-2-2s0.9-2,2-2S10,12.9,10,14z M10,8c0,1.1-0.9,2-2,2S6,9.1,6,8s0.9-2,2-2S10,6.9,10,8z M10,2
	c0,1.1-0.9,2-2,2S6,3.1,6,2s0.9-2,2-2S10,0.9,10,2z"/>
</svg>
