<?xml version="1.0" encoding="utf-8"?>
<!-- Generator: Adobe Illustrator 21.1.0, SVG Export Plug-In . SVG Version: 6.00 Build 0)  -->
<svg version="1.1" id="Layer_1" xmlns="http://www.w3.org/2000/svg" xmlns:xlink="http://www.w3.org/1999/xlink" x="0px" y="0px"
	 viewBox="0 0 16 16" style="enable-background:new 0 0 16 16;" xml:space="preserve">
<polygon points="16,9 16,13 12,13 12,9 13,9 13,8 9,8 9,9 10,9 10,13 6,13 6,9 7,9 7,8 3,8 3,9 4,9 4,13 0,13 0,9 1,9 1,6 7,6 7,5 
	6,5 6,1 10,1 10,5 9,5 9,6 15,6 15,9 "/>
</svg>
