<?xml version="1.0" encoding="utf-8"?>
<!-- Generator: Adobe Illustrator 16.0.0, SVG Export Plug-In . SVG Version: 6.00 Build 0)  -->
<!DOCTYPE svg PUBLIC "-//W3C//DTD SVG 1.1//EN" "http://www.w3.org/Graphics/SVG/1.1/DTD/svg11.dtd">
<svg version="1.1" id="Layer_1" xmlns="http://www.w3.org/2000/svg" xmlns:xlink="http://www.w3.org/1999/xlink" x="0px" y="0px"
	 width="23.998px" height="24.002px" viewBox="0 0 23.998 24.002" enable-background="new 0 0 23.998 24.002" xml:space="preserve">
<g>
	<path fill-rule="evenodd" clip-rule="evenodd" d="M20.017,16.692c-0.176,0.021-0.332,0.04-0.49,0.06
		c-0.423-0.506-1.024-0.521-1.635-0.573c0.023-0.059,0.045-0.114,0.066-0.169c0.332-0.828,0.437-1.688,0.25-2.557
		c-0.201-0.931-0.837-1.552-1.623-2.034c-0.018-0.01-0.044-0.005-0.129-0.013c0.845,0.534,1.345,1.251,1.562,2.164
		c0.218,0.915-0.044,1.765-0.358,2.616c-0.249,0.061-0.502,0.106-0.631,0.382c0.371-0.292,0.795-0.308,1.225-0.253
		c0.431,0.057,0.866,0.12,1.132,0.537c-0.25,0.373-0.478,0.747-0.863,1c-0.446,0.29-0.963,0.241-1.331-0.177
		c0.041-0.474,0.148-0.997-0.512-1.191c0-0.069-0.004-0.131,0.001-0.191c0.089-1.264,0.017-2.511-0.413-3.716
		c-0.069-0.193-0.15-0.384-0.248-0.563c-0.446-0.831-0.786-1.704-1.084-2.596c-0.098-0.29-0.251-0.561-0.381-0.839
		c-0.165-0.357-0.331-0.713-0.481-1.039c0.372-0.791,0.399-1.332-0.115-1.674c0.063-0.221,0.141-0.435,0.18-0.656
		c0.107-0.614-0.115-1.14-0.502-1.592c-0.328-0.384-1.031-0.388-1.414-0.019c-0.292,0.283-0.481,0.626-0.463,1.052
		c0.004,0.108,0.001,0.217,0.001,0.327c-0.326,0-0.631,0-0.949,0c-0.004-0.055-0.011-0.108-0.01-0.162
		c0.011-0.38-0.117-0.708-0.356-1.003c-0.379-0.467-0.99-0.395-1.195,0.166C9.04,4.551,9.102,5.127,9.314,5.69
		c0.022,0.059,0.049,0.116,0.083,0.192C9.128,6.123,8.84,6.357,8.833,6.765C8.827,7.158,9.03,7.454,9.285,7.717
		c-0.019,0.348-0.02,0.689-0.063,1.025c-0.019,0.146-0.116,0.289-0.196,0.42c-0.178,0.29-0.38,0.563-0.549,0.856
		c-0.224,0.386-0.146,0.666,0.225,0.905c0.104,0.067,0.21,0.129,0.315,0.194c0.003,0.022,0.005,0.043,0.007,0.066
		c-0.13,0.056-0.257,0.125-0.391,0.167c-0.302,0.096-0.557,0.258-0.769,0.492c-0.031,0.034-0.069,0.066-0.092,0.106
		c-0.693,1.204-1.225,2.46-1.228,3.882c0,0.194,0.017,0.388,0.027,0.614c-0.442-0.405-0.544-0.906-0.542-1.438
		c0.003-0.736,0.244-1.413,0.545-2.069c0.125-0.272,0.271-0.534,0.408-0.802c0.034-0.065,0.067-0.131,0.101-0.197
		c-0.019-0.012-0.038-0.024-0.057-0.037c-0.064,0.09-0.137,0.174-0.19,0.27c-0.427,0.77-0.773,1.569-0.904,2.451
		c-0.077,0.521-0.014,0.988,0.264,1.575c-0.511-0.337-0.976-0.233-1.431,0.074c-0.159-0.488-0.057-0.943,0.113-1.388
		c0.513-1.345,1.041-2.684,1.839-3.89c0.422-0.638,0.917-1.228,1.352-1.858c0.218-0.314,0.404-0.658,0.556-1.009
		c0.201-0.464,0.042-0.954,0.027-1.432c-0.035-1.16-0.095-2.32-0.114-3.481C8.529,2.693,8.637,2.179,8.844,1.692
		c0.322-0.754,0.933-1.179,1.676-1.433c1.597-0.541,3.014-0.238,4.221,0.929c0.412,0.396,0.644,0.916,0.814,1.455
		c0.214,0.673,0.338,1.354,0.285,2.073c-0.074,1.031,0.228,2,0.621,2.939c0.337,0.808,0.847,1.515,1.368,2.211
		c0.771,1.028,1.446,2.109,1.916,3.312c0.255,0.649,0.448,1.313,0.528,2.009C20.334,15.711,20.228,16.207,20.017,16.692z"/>
	<path fill-rule="evenodd" clip-rule="evenodd" d="M9.757,22.466c0.084,0.388-0.123,0.672-0.456,0.897
		c-0.104,0.071-0.2,0.157-0.287,0.249c-0.416,0.437-0.925,0.527-1.48,0.373c-0.447-0.126-0.891-0.273-1.322-0.444
		c-0.856-0.34-1.757-0.506-2.649-0.707c-0.361-0.081-0.723-0.172-1.071-0.294c-0.52-0.183-0.677-0.47-0.57-1.007
		c0.15-0.753,0.161-1.505,0.033-2.261c-0.014-0.086-0.015-0.174-0.015-0.261c-0.001-0.348,0.12-0.526,0.457-0.629
		c0.294-0.089,0.594-0.164,0.895-0.228c0.375-0.077,0.671-0.265,0.894-0.573c0.12-0.167,0.235-0.338,0.363-0.499
		c0.133-0.165,0.264-0.337,0.421-0.479c0.399-0.358,0.786-0.375,1.142,0.027c0.468,0.531,0.906,1.095,1.302,1.683
		c0.667,0.987,1.229,2.044,1.998,2.964C9.681,21.604,9.802,21.996,9.757,22.466z"/>
	<path fill-rule="evenodd" clip-rule="evenodd" d="M16.738,24.053c-0.211-0.024-0.424-0.04-0.634-0.074
		c-0.501-0.081-0.786-0.397-0.925-0.869c-0.169-0.575-0.089-1.146,0.02-1.715c0.18-0.941,0.292-1.889,0.275-2.85
		c-0.007-0.396,0.014-0.791,0.037-1.186c0.021-0.381,0.186-0.531,0.571-0.543c0.142-0.005,0.285-0.003,0.427,0.009
		c0.229,0.02,0.319,0.132,0.308,0.362c-0.001,0.016-0.005,0.03-0.006,0.047c-0.068,0.68,0.313,1.103,1.002,1.157
		c0.687,0.056,1.121-0.339,1.528-0.797c0.093-0.105,0.156-0.237,0.237-0.354c0.179-0.258,0.53-0.246,0.668,0.039
		c0.069,0.143,0.119,0.324,0.097,0.478c-0.086,0.595,0.189,1.022,0.604,1.387c0.29,0.254,0.591,0.499,0.908,0.719
		c0.428,0.295,0.478,0.747,0.068,1.075c-0.258,0.206-0.555,0.364-0.832,0.545c-0.675,0.439-1.354,0.873-2.021,1.324
		c-0.239,0.163-0.463,0.358-0.669,0.564C17.939,23.833,17.398,24.075,16.738,24.053z"/>
	<path fill-rule="evenodd" clip-rule="evenodd" d="M9.855,5.827c-0.305-0.284-0.479-0.599-0.461-1
		C9.407,4.545,9.545,4.338,9.751,4.3c0.213-0.039,0.447,0.108,0.545,0.365c0.044,0.116,0.063,0.244,0.076,0.368
		c0.013,0.117,0.003,0.236,0.003,0.319c0.325-0.048,0.661-0.124,0.998-0.14c0.353-0.017,0.692,0.077,0.964,0.3
		c0-0.214-0.006-0.409,0.002-0.604c0.014-0.343,0.189-0.578,0.446-0.614c0.363-0.051,0.584,0.079,0.719,0.426
		c0.186,0.479,0.065,0.782-0.437,1.073c0.208,0.074,0.407,0.139,0.603,0.218c0.367,0.149,0.444,0.304,0.416,0.693
		c-0.035,0.487-0.264,0.794-0.726,0.974c-0.313,0.121-0.601,0.313-0.878,0.505c-0.504,0.348-1.051,0.475-1.648,0.373
		c-0.143-0.025-0.303-0.073-0.411-0.163c-0.361-0.305-0.717-0.621-1.052-0.957C9.023,7.089,8.898,6.588,9.439,6.176
		C9.577,6.071,9.706,5.953,9.855,5.827z M9.23,6.925c-0.019,0.02-0.037,0.039-0.055,0.059c0.069,0.094,0.126,0.201,0.209,0.28
		c0.66,0.63,1.439,0.7,2.273,0.446c0.712-0.218,1.318-0.643,1.944-1.02c0.062-0.036,0.129-0.063,0.193-0.093
		c-0.2-0.182-0.313-0.092-0.424-0.032c-0.479,0.258-0.946,0.54-1.438,0.774c-0.889,0.426-1.74,0.419-2.503-0.29
		C9.374,6.998,9.297,6.966,9.23,6.925z"/>
	<path fill-rule="evenodd" clip-rule="evenodd" d="M14.962,20.164c-0.076,0.926-0.368,1.813-0.263,2.782
		c-1.513-0.384-3.014-0.061-4.497-0.064c-0.032-0.408-0.065-0.827-0.1-1.245C11.913,21.857,13.564,21.452,14.962,20.164z"/>
	<path fill-rule="evenodd" clip-rule="evenodd" d="M7.014,17.006c0.74,0.61,1.484,1.209,2.208,1.831
		c0.159,0.136,0.293,0.337,0.362,0.535c0.153,0.438-0.051,0.729-0.534,0.808C8.375,19.127,7.696,18.067,7.014,17.006z"/>
</g>
</svg>
