<?xml version="1.0" encoding="utf-8"?>
<!-- Generator: Adobe Illustrator 16.0.0, SVG Export Plug-In . SVG Version: 6.00 Build 0)  -->
<!DOCTYPE svg PUBLIC "-//W3C//DTD SVG 1.1//EN" "http://www.w3.org/Graphics/SVG/1.1/DTD/svg11.dtd">
<svg version="1.1" id="Layer_1" xmlns="http://www.w3.org/2000/svg" xmlns:xlink="http://www.w3.org/1999/xlink" x="0px" y="0px"
	 width="24px" height="24px" viewBox="0 0 24 24" enable-background="new 0 0 24 24" xml:space="preserve">
<g>
	<path fill-rule="evenodd" clip-rule="evenodd" d="M21.587,17.59c-0.841,1.908-1.888,3.666-3.339,5.16
		c-0.429,0.441-0.923,0.811-1.512,1.026c-0.84,0.309-1.638,0.147-2.437-0.187c-0.54-0.226-1.098-0.441-1.667-0.562
		c-0.981-0.205-1.949-0.066-2.883,0.302c-0.443,0.177-0.881,0.377-1.338,0.506c-1.001,0.281-1.904,0.028-2.719-0.589
		c-0.925-0.702-1.601-1.618-2.226-2.575c-1.004-1.535-1.734-3.19-2.135-4.98c-0.388-1.733-0.478-3.471-0.039-5.211
		c0.317-1.258,0.973-2.313,1.914-3.195c0.738-0.692,1.587-1.2,2.559-1.489c1.13-0.337,2.239-0.198,3.334,0.17
		c0.49,0.166,0.977,0.342,1.472,0.492c0.957,0.289,1.882,0.151,2.807-0.193c0.631-0.235,1.282-0.439,1.941-0.572
		c1.226-0.248,2.394-0.012,3.488,0.581c0.801,0.434,1.484,1.013,2.07,1.74c-1.891,1.136-2.858,2.795-2.676,4.996
		C18.383,15.185,19.553,16.704,21.587,17.59z"/>
	<path fill-rule="evenodd" clip-rule="evenodd" d="M15.781,0c0.447,2.271-1.607,5.72-4.841,5.726
		c-0.005-0.343-0.05-0.693-0.006-1.032c0.303-2.325,2.267-4.314,4.591-4.674C15.61,0.007,15.697,0.006,15.781,0z"/>
</g>
</svg>
