<?xml version="1.0" encoding="utf-8"?>
<!-- Generator: Adobe Illustrator 19.2.1, SVG Export Plug-In . SVG Version: 6.00 Build 0)  -->
<svg version="1.1" id="Layer_1" xmlns="http://www.w3.org/2000/svg" xmlns:xlink="http://www.w3.org/1999/xlink" x="0px" y="0px"
	   viewBox="0 0 16 16" style="enable-background:new 0 0 16 16;" xml:space="preserve">
<polygon points="10,8 0,16 0,0 "/>
<path d="M14.5,0.35v3.28L13,4.5l-1.5-0.87V0.35c-1.18,0.55-2,1.76-2,3.15c0,1.18,0.59,2.23,1.5,2.86V14c0,0.17,0.02,0.34,0.07,0.5
	c0.22,0.86,1,1.5,1.93,1.5s1.71-0.64,1.93-1.5C14.98,14.34,15,14.17,15,14V6.36c0.91-0.63,1.5-1.68,1.5-2.86
	C16.5,2.11,15.68,0.9,14.5,0.35z M13,14.75c-0.22,0-0.42-0.1-0.55-0.25c-0.13-0.13-0.2-0.31-0.2-0.5c0-0.41,0.34-0.75,0.75-0.75
	c0.41,0,0.75,0.34,0.75,0.75c0,0.19-0.07,0.37-0.2,0.5C13.42,14.65,13.22,14.75,13,14.75z"/>
</svg>
