<?xml version="1.0" encoding="utf-8"?>
<!-- Generator: Adobe Illustrator 19.2.1, SVG Export Plug-In . SVG Version: 6.00 Build 0)  -->
<svg version="1.1" id="Layer_1" xmlns="http://www.w3.org/2000/svg" xmlns:xlink="http://www.w3.org/1999/xlink" x="0px" y="0px"
	   viewBox="0 0 24 24" style="enable-background:new 0 0 24 24;" xml:space="preserve">
<g>
	<path d="M21,6V3h3c0-1.7-1.4-3-3-3H6C5.1,0,4.4,0.3,3.9,0.9C3.4,1.4,3,2.2,3,3v3H0v12h3v3H0c0,1.7,1.3,3,3,3h15
		c0.8,0,1.5-0.3,2.1-0.9c0.5-0.5,0.9-1.3,0.9-2.1V10.3L25.5,6H21z M20.1,11.6C20,13.3,20,21,20,21c0,2-1.5,2.5-1.5,2.5S17,23,17,21
		h-1.5C10.5,21,4,21,4,21v-3h9.8l2-2.1h-3.5l-0.4-1.2c-0.4,0.1-0.8,0.2-1.3,0.2s-1-0.1-1.4-0.2l-0.4,1.2H6.4l0.3-0.6c0,0,0,0-0.1,0
		c-0.5,0.4-1.1,0.6-1.8,0.7H4.2c-0.1,0-0.1,0-0.2,0c-1-0.1-2-0.4-2.8-0.8L2,13.6c0.8,0.5,1.3,0.6,1.9,0.6h0.2c0.3,0,0.4,0,0.6-0.1
		C4.8,14,4.9,14,5,13.9s0.2-0.3,0.2-0.4c0-0.2-0.2-0.4-0.5-0.5c-0.2-0.1-0.5-0.2-0.8-0.3c-0.1,0-0.1,0-0.1,0
		c-0.6-0.2-1.2-0.4-1.8-0.8c-0.6-0.5-0.9-1-0.9-1.8c0-0.6,0.2-1.1,0.6-1.5c0.5-0.5,1.2-0.8,2.1-0.9h0.8C5.5,7.8,6.5,8,7.3,8.4
		L6.4,10C5.5,9.6,5.1,9.5,4.6,9.5H4.4c-0.2,0-0.4,0-0.6,0.1c-0.3,0.1-0.5,0.3-0.5,0.5c-0.1,0.2,0.2,0.4,0.5,0.6
		C4,10.8,4.3,10.9,4.6,11h0.1c1.1,0.4,2.5,0.8,2.7,2.1l2-5.1h2.2l2.3,6.1V8h2.6c2.6,0,3.7,0.9,3.8,2.7C20.2,11,20.2,11.3,20.1,11.6z
		 M20,3v3H4V3c0-1.1,0.9-2,2-2h16C21.8,1,20,1,20,3z"/>
	<path d="M18.3,13.2l-2.2,2.3v-2.1H17C17.5,13.4,17.9,13.3,18.3,13.2z"/>
	<g>
		<path d="M18,10.7c0,0.9-0.6,1.1-1.4,1.1H16V9.7h0.6C17.4,9.7,18,9.9,18,10.7z"/>
		<path d="M11.2,13.1c-0.3,0.1-0.5,0.1-0.8,0.1s-0.6-0.1-0.8-0.1l0.8-2.6L11.2,13.1z"/>
	</g>
</g>
</svg>
