<?xml version="1.0" encoding="utf-8"?>
<!-- Generator: Adobe Illustrator 19.2.1, SVG Export Plug-In . SVG Version: 6.00 Build 0)  -->
<svg version="1.1" id="Layer_1" xmlns="http://www.w3.org/2000/svg" xmlns:xlink="http://www.w3.org/1999/xlink" x="0px" y="0px"
	   viewBox="0 0 24 24" style="enable-background:new 0 0 24 24;" xml:space="preserve">
<path d="M21,0H6C5.2,0,4.4,0.3,3.9,0.9C3.3,1.4,3,2.2,3,3v18H0c0,1.7,1.3,3,3,3h15c0.8,0,1.5-0.3,2.1-0.9c0.6-0.5,0.9-1.3,0.9-2.1V3
	h3C24,1.3,22.6,0,21,0z M10,1h4v1h-4V1z M10,23H8v-1h2V23z M20,21c0,2-1.5,2.5-1.5,2.5S17,23,17,21h-1.5C10.4,21,4,21,4,21V3h16V21z
	"/>
<polygon points="14.4,12 13.6,16 17.1,16 16.7,18 11,18 12.6,10 18.3,10 17.9,12 "/>
<polygon points="15.2,7 14.8,9 11.7,9 10.5,15 8.2,15 9.4,9 6,9 6.4,7 "/>
</svg>
