<?xml version="1.0" encoding="utf-8"?>
<!-- Generator: Adobe Illustrator 20.1.0, SVG Export Plug-In . SVG Version: 6.00 Build 0)  -->
<svg version="1.1" id="Layer_1" xmlns="http://www.w3.org/2000/svg" xmlns:xlink="http://www.w3.org/1999/xlink" x="0px" y="0px"
	 viewBox="0 0 24 24" style="enable-background:new 0 0 24 24;" xml:space="preserve">
<path d="M21,0H6C5.2,0,4.4,0.3,3.9,0.9S3,2.2,3,3v18H0c0,1.7,1.3,3,3,3h15c0.8,0,1.5-0.3,2.1-0.9c0.5-0.5,0.9-1.3,0.9-2.1V3h3
	C24,1.3,22.6,0,21,0z M20,3v18c0,2-1.5,2.5-1.5,2.5S17,23,17,21h-1.5C10.4,21,4,21,4,21V3c0-1.1,0.9-2,2-2h16C21.8,1,20,1,20,3z"/>
<path d="M11.9,11.3c-0.2-0.2-0.4-0.3-0.6-0.5c-0.4-0.3-0.8-0.7-1.1-1.1C10,9.5,9.8,9.2,9.7,9C9.5,8.4,9.6,7.9,9.9,7.4
	c0.2-0.4,0.6-0.7,0.9-1c0.5-0.5,1.1-0.9,1.6-1.4c0.4-0.3,0.7-0.7,0.9-1.1c0.2-0.3,0.3-0.7,0.3-1.1c0-0.2,0-0.3,0-0.5
	c0-0.1,0-0.2,0-0.2c0,0.1,0,0.1,0.1,0.2c0.2,0.5,0.2,1,0.2,1.6c-0.1,0.5-0.3,0.9-0.6,1.3c-0.3,0.3-0.6,0.6-0.9,0.9
	c-0.4,0.3-0.9,0.7-1.2,1.1c-0.2,0.2-0.3,0.4-0.4,0.6c-0.2,0.4-0.2,0.8-0.1,1.2c0.1,0.4,0.3,0.8,0.5,1.1
	C11.3,10.6,11.6,10.9,11.9,11.3L11.9,11.3z"/>
<path d="M6.7,17.1c0.1,0,0.1,0.1,0.2,0.1c0.2,0.1,0.4,0.2,0.6,0.2c0.4,0.1,0.8,0.1,1.1,0.1c1.4,0.1,2.7,0.1,4.1,0.1
	c0.8,0,1.5-0.1,2.3-0.2c0.5-0.1,0.9-0.1,1.4-0.3c0.1,0,0.3-0.1,0.4-0.2s0.2-0.2,0.2-0.3c0.1,0.2,0.1,0.4-0.1,0.5
	c-0.1,0.1-0.2,0.2-0.4,0.3c-0.4,0.2-0.9,0.3-1.3,0.4C14.6,17.9,14,18,13.4,18c-0.9,0.1-1.9,0.1-2.8,0c-0.4,0-0.9,0-1.3-0.1
	c-0.9-0.1-1.9-0.2-2.8-0.4c-0.2,0-0.4-0.1-0.6-0.1c-0.1,0-0.3-0.1-0.4-0.2c-0.2-0.1-0.2-0.3,0-0.4C5.8,17,5.9,16.9,6,16.9
	c0.4-0.1,0.7-0.2,1.1-0.3c0.2,0,0.4-0.1,0.7-0.1c0.1,0,0.2,0,0.2,0c-0.3,0.1-0.6,0.1-0.8,0.2c-0.1,0-0.3,0.1-0.4,0.2
	C6.8,16.9,6.7,17,6.7,17.1z"/>
<path d="M12.5,11.9c0.1-0.1,0.1-0.1,0.2-0.2c0.3-0.4,0.3-0.8,0.1-1.2c-0.1-0.2-0.2-0.4-0.4-0.6C12.3,9.5,12.1,9.3,12,9
	c-0.1-0.2-0.2-0.4-0.2-0.6c0-0.2,0.1-0.4,0.2-0.6c0.2-0.3,0.4-0.5,0.6-0.7c0.5-0.4,1-0.7,1.6-0.9C14.6,6,15,5.8,15.4,5.7h0.1
	c0,0-0.1,0-0.1,0.1c-0.5,0.3-1,0.6-1.4,1c-0.3,0.2-0.6,0.5-0.8,0.8C13,7.7,12.9,8,12.9,8.3c0,0.2,0.1,0.4,0.2,0.5
	c0.1,0.2,0.3,0.4,0.5,0.7c0.1,0.2,0.3,0.4,0.3,0.7c0,0.2,0,0.4-0.1,0.6c-0.1,0.1-0.2,0.3-0.3,0.4C13.2,11.4,12.9,11.7,12.5,11.9z"/>
<path d="M9.7,11.4c-0.1,0-0.3,0.1-0.4,0.1c-0.3,0.1-0.5,0.2-0.8,0.3c-0.1,0-0.1,0.1-0.2,0.1c-0.1,0-0.1,0.1,0,0.2
	c0.1,0.1,0.2,0.1,0.3,0.1c0.2,0,0.4,0.1,0.6,0.1c0.4,0,0.9,0,1.3,0c0.7,0,1.5,0,2.2-0.1s1.4-0.1,2.1-0.2c0.2,0,0.3-0.1,0.5-0.1
	L15.2,12c-0.5,0.2-1,0.4-1.5,0.5s-1,0.2-1.5,0.2c-0.8,0.1-1.6,0.1-2.4,0.1c-0.7,0-1.3-0.1-2-0.2c-0.2,0-0.4-0.1-0.5-0.2
	c-0.1,0-0.2-0.1-0.2-0.2c0-0.1,0.1-0.1,0.1-0.2c0.2-0.1,0.4-0.2,0.6-0.3C8.4,11.5,9.1,11.4,9.7,11.4C9.6,11.4,9.6,11.4,9.7,11.4
	L9.7,11.4z"/>
<path d="M9.4,15.3c0,0.2,0.1,0.2,0.3,0.3s0.4,0.1,0.6,0.1c0.5,0.1,1,0.1,1.4,0c0.6,0,1.2-0.1,1.8-0.2l0,0c0.3,0.2,0.5,0.3,0.8,0.5
	c-0.1,0.1-0.2,0.1-0.3,0.1c-0.4,0.1-0.8,0.2-1.3,0.3c-0.5,0.1-1,0.1-1.5,0.1c-0.6,0-1.3-0.1-1.9-0.3C9.3,16.1,9.1,16,9,16
	c-0.2-0.1-0.2-0.3,0-0.4C9.1,15.4,9.3,15.3,9.4,15.3z"/>
<path d="M9.1,13.3c0,0.1,0,0.1-0.1,0.2c0,0.1,0,0.3,0.1,0.3C9.3,13.9,9.4,14,9.5,14c0.3,0,0.5,0.1,0.8,0.1c0.6,0,1.2,0,1.8-0.1
	c0.7-0.1,1.3-0.2,1.9-0.3h0.1c0.2,0.1,0.4,0.3,0.7,0.5c-0.1,0-0.1,0.1-0.2,0.1c-0.4,0.1-0.7,0.2-1.1,0.2c-0.6,0.1-1.2,0.1-1.9,0.1
	s-1.4,0-2-0.1c-0.3,0-0.6-0.1-0.9-0.2c-0.1,0-0.2-0.1-0.3-0.2c-0.1-0.1-0.1-0.2,0-0.3c0,0,0-0.1,0.1-0.1C8.6,13.6,8.9,13.4,9.1,13.3
	z"/>
<path d="M7.8,18.2c0.2,0,0.3,0.1,0.4,0.1c0.4,0.1,0.8,0.2,1.2,0.2c0.8,0.1,1.6,0.1,2.4,0.1c0.5,0,1,0,1.5-0.1c0.4,0,0.9-0.1,1.3-0.1
	c0.7-0.1,1.5-0.2,2.2-0.5c0.2-0.1,0.4-0.2,0.7-0.3c0.2-0.1,0.4-0.3,0.6-0.5c0,0.2,0,0.4-0.2,0.5c-0.1,0.2-0.3,0.3-0.5,0.4
	c-0.5,0.3-1,0.4-1.5,0.5c-0.6,0.1-1.2,0.2-1.8,0.2C13.2,19,12.3,19,11.3,19c-0.9,0-1.8-0.1-2.7-0.3c-0.2,0-0.4-0.1-0.6-0.2
	c-0.1,0-0.2-0.1-0.3-0.2C7.8,18.4,7.7,18.3,7.8,18.2z"/>
<path d="M15.8,11.5c0.4-0.3,0.9-0.4,1.3-0.3c0.5,0.1,0.8,0.6,0.8,1.1c0,0.6-0.2,1-0.6,1.4s-0.9,0.6-1.5,0.7c-0.1,0-0.3,0.1-0.5,0.1
	c0.1-0.1,0.3-0.2,0.4-0.2c0.4-0.3,0.8-0.6,1.1-1c0.2-0.3,0.3-0.6,0.3-0.9c0-0.5-0.3-0.8-0.7-0.9C16.3,11.5,16.1,11.5,15.8,11.5
	L15.8,11.5z"/>
</svg>
