<?xml version="1.0" encoding="utf-8"?>
<!-- Generator: Adobe Illustrator 20.1.0, SVG Export Plug-In . SVG Version: 6.00 Build 0)  -->
<svg version="1.1" id="Layer_1" xmlns="http://www.w3.org/2000/svg" xmlns:xlink="http://www.w3.org/1999/xlink" x="0px" y="0px"
	   viewBox="0 0 24 24" style="enable-background:new 0 0 24 24;" xml:space="preserve">
<path d="M21,3h3c0-1.7-1.4-3-3-3H6C5.1,0,4.4,0.3,3.9,0.9C3.4,1.5,3,2.2,3,3v4H0v11h3v3H0c0,1.7,1.3,3,3,3h15c0.8,0,1.5-0.3,2.1-0.9
	c0.5-0.5,0.9-1.3,0.9-2.1v-3h3V7h-3V3z M2,16v-2h2v2H2z M20,21c0,2-1.5,2.5-1.5,2.5S17,23,17,21c-4.5,0-13,0-13,0v-3h16V21z M5,16V9
	h1l3,4.88V9h1v7H9l-3-4.87V16H5z M15,12v1h-3v2h3v1h-4V9h4v1h-3v2H15z M15.5,10V9h4v1H18v6h-1v-6H15.5z M4,7V3c0-1.1,0.9-2,2-2h16
	c0,0-2,0-2,2v4H4z"/>
</svg>
