<?xml version="1.0" encoding="utf-8"?>
<!-- Generator: Adobe Illustrator 23.0.0, SVG Export Plug-In . SVG Version: 6.00 Build 0)  -->
<svg version="1.1" id="Layer_1" xmlns="http://www.w3.org/2000/svg" xmlns:xlink="http://www.w3.org/1999/xlink" x="0px" y="0px"
	 viewBox="0 0 24 24" style="enable-background:new 0 0 24 24;" xml:space="preserve">
<path d="M21,3h3c0-1.7-1.4-3-3-3H6C5.1,0,4.4,0.3,3.9,0.9C3.4,1.5,3,2.2,3,3v3H0v12h3v3H0c0,1.7,1.3,3,3,3h15c0.8,0,1.5-0.3,2.1-0.9
	c0.5-0.5,0.9-1.3,0.9-2.1v-3h3V6h-3V3z M4,3c0-1.1,0.9-2,2-2h16c0,0-2,0-2,2v3H4V3z M12.7,14.3c0.7,0,1.3-0.2,1.8-0.7v1.5
	c-0.5,0.4-1.1,0.6-1.9,0.6c-2.1,0-3.7-1.5-3.7-3.8c0-2.3,1.5-3.8,3.7-3.8c0.8,0,1.4,0.2,1.9,0.6v1.5c-0.6-0.5-1.2-0.7-1.8-0.7
	c-1.3,0-2.2,0.9-2.2,2.4C10.5,13.3,11.4,14.3,12.7,14.3z M3.1,15.6H1.7V8.2h1.4l3.3,4.7V8.2h1.5v7.4H6.6l-3.5-4.9V15.6z M20,21
	c0,2-1.5,2.5-1.5,2.5S17,23,17,21c-4.5,0-13,0-13,0v-3h16V21z M22.3,15.6h-1.6L20,13.8h-2.8l-0.6,1.8h-1.5L18,8.2h1.5L22.3,15.6z"/>
<polygon points="19.6,12.5 17.8,12.5 18.7,10.1 "/>
</svg>
