<?xml version="1.0" encoding="utf-8"?>
<!-- Generator: Adobe Illustrator 19.2.1, SVG Export Plug-In . SVG Version: 6.00 Build 0)  -->
<svg version="1.1" id="Layer_1" xmlns="http://www.w3.org/2000/svg" xmlns:xlink="http://www.w3.org/1999/xlink" x="0px" y="0px"
	   viewBox="0 0 24 24" style="enable-background:new 0 0 24 24;" xml:space="preserve">
<g>
	<path d="M17.9,6.8C17.8,6.8,17.8,6.7,17.9,6.8c-0.1-0.1-0.2-0.1-0.2,0l0.1,0.6c-1.1,1-2.2,2-3.5,3c-0.5,0.4-0.7,0.8-1.2,1.2
		c-0.4,0.6-0.7,0.9-1.1,1.5c-0.5,0.6-0.8,0.9-1.3,1.4c-0.3,0.2-0.7,0.4-1,0.4c-0.6,0.2-1,0.2-1.5,0.4c-0.3,0.1-0.7,0.3-0.7,0.7
		c-0.5,0.8-0.8,1.6-1.2,2.3c-0.1,0.5-0.5,0.8-0.9,1.1c0.6-1.5,1.3-2.9,2.2-4.1c-0.3-0.8,0.1-1.6,0.6-2.2c0.7-1.1,1.4-2.3,2.3-3.4
		C11.1,8.6,12,7.8,13,7c0.7-0.7,1.6-1.1,2.4-1.7C15.7,5.3,16,5,16.3,4.8c0.2,0,0.6-0.1,0.8-0.3c0,0,0.1-0.1,0.2-0.1
		c0.2,0,0.5-0.1,0.7-0.1C18.4,5.1,18.5,5.8,17.9,6.8z"/>
</g>
<path d="M21,0H6C5.1,0,4.4,0.3,3.9,0.9S3,2.2,3,3v18H0c0,1.7,1.3,3,3,3h15c0.8,0,1.5-0.3,2.1-0.9c0.5-0.5,0.9-1.3,0.9-2.1V3h3
	C24,1.3,22.6,0,21,0z M20,3v18c0,2-1.5,2.5-1.5,2.5S17,23,17,21h-1.5C10.4,21,4,21,4,21V3c0-1.1,0.9-2,2-2h16C21.8,1,20,1,20,3z"/>
</svg>
