<?xml version="1.0" encoding="utf-8"?>
<!-- Generator: Adobe Illustrator 22.0.1, SVG Export Plug-In . SVG Version: 6.00 Build 0)  -->
<svg version="1.1" id="Layer_1" xmlns="http://www.w3.org/2000/svg" xmlns:xlink="http://www.w3.org/1999/xlink" x="0px" y="0px"
	 viewBox="0 0 24 24" style="enable-background:new 0 0 24 24;" xml:space="preserve">
<path d="M21,3h3c0-1.7-1.4-3-3-3H6C5.1,0,4.4,0.3,3.9,0.9C3.4,1.5,3,2.2,3,3v2H0v13h3v3H0c0,1.7,1.3,3,3,3h15c0.8,0,1.5-0.3,2.1-0.9
	c0.5-0.5,0.9-1.3,0.9-2.1v-3h3V5h-3V3z M3,8h5v4H4v3H3V8z M20,21c0,2-1.5,2.5-1.5,2.5S17,23,17,21c-4.5,0-13,0-13,0v-3h16V21z
	 M13,11V8h1v7h-1v-3h-3v3H9V8h1v3H13z M20,9h-1v2h-1v1h1v2h1v1h-1v-1h-1v-1h-1v1h-1v1h-1v-1h1v-2h1v-1h-1V9h-1V8h1v1h1v1h1V9h1V8h1
	V9z M20,3v2H4V3c0-1.1,0.9-2,2-2h16C22,1,20,1,20,3z"/>
<rect x="4" y="9" width="3" height="2"/>
</svg>
