<?xml version="1.0" encoding="utf-8"?>
<!-- Generator: Adobe Illustrator 19.2.1, SVG Export Plug-In . SVG Version: 6.00 Build 0)  -->
<svg version="1.1"
	 id="Layer_1" inkscape:version="0.48.3.1 r9886" sodipodi:docname="script-web.svg" xmlns:cc="http://creativecommons.org/ns#" xmlns:dc="http://purl.org/dc/elements/1.1/" xmlns:inkscape="http://www.inkscape.org/namespaces/inkscape" xmlns:rdf="http://www.w3.org/1999/02/22-rdf-syntax-ns#" xmlns:sodipodi="http://sodipodi.sourceforge.net/DTD/sodipodi-0.dtd" xmlns:svg="http://www.w3.org/2000/svg"
	 xmlns="http://www.w3.org/2000/svg" xmlns:xlink="http://www.w3.org/1999/xlink" x="0px" y="0px"  
	 viewBox="0 0 24 24" style="enable-background:new 0 0 24 24;" xml:space="preserve">
<sodipodi:namedview  bordercolor="#666666" borderopacity="1" gridtolerance="10" guidetolerance="10" id="namedview7" inkscape:current-layer="Layer_1" inkscape:cx="16" inkscape:cy="16" inkscape:pageopacity="0" inkscape:pageshadow="2" inkscape:window-height="480" inkscape:window-maximized="0" inkscape:window-width="640" inkscape:window-x="0" inkscape:window-y="25" inkscape:zoom="7.375" objecttolerance="10" pagecolor="#ffffff" showgrid="false">
	</sodipodi:namedview>
<path d="M21,0H6C5.2,0,4.4,0.3,3.9,0.9S3,2.2,3,3v18H0c0,1.7,1.3,3,3,3h15c0.8,0,1.5-0.3,2.1-0.9c0.5-0.5,0.9-1.3,0.9-2.1V3h3
	C24,1.3,22.6,0,21,0z M20,3v18c0,2-1.5,2.5-1.5,2.5S17,23,17,21h-2.5C9.4,21,4,21,4,21V3c0-1.1,0.9-2,2-2h16C21.8,1,20,1,20,3z"/>
<path d="M11,3C7.7,3,5,5.7,5,9s2.7,6,6,6s6-2.7,6-6S14.3,3,11,3z M15.6,7h-1.8c-0.2-1-0.5-1.9-0.9-2.6C14.1,4.9,15.1,5.8,15.6,7z
	 M13,9c0,0.4,0,0.7,0,1H9c0-0.3,0-0.6,0-1s0-0.7,0-1H13C13,8.3,13,8.6,13,9z M11,4c0,0,0.1,0,0.1,0c0.6,0.1,1.4,1.2,1.7,3H9.2
	C9.6,5.1,10.4,4,11,4z M9.1,4.4C8.7,5.1,8.4,6,8.2,7H6.4C6.9,5.8,7.9,4.9,9.1,4.4z M6,9c0-0.3,0-0.7,0.1-1h2C8,8.3,8,8.7,8,9
	s0,0.7,0.1,1h-2C6,9.7,6,9.3,6,9z M6.4,11h1.8c0.2,1,0.5,1.9,0.9,2.6C7.9,13.1,6.9,12.2,6.4,11z M11,14c-0.6,0-1.4-1.1-1.8-3h3.6
	C12.4,12.9,11.6,14,11,14z M12.9,13.6c0.4-0.7,0.7-1.6,0.9-2.6h1.8C15.1,12.2,14.1,13.1,12.9,13.6z M13.9,10C14,9.7,14,9.3,14,9
	s0-0.7-0.1-1h1.9C16,8.3,16,8.7,16,9s0,0.7-0.1,1H13.9z"/>
<path d="M19,17.5v-1l-0.6-0.2c0-0.2-0.1-0.4-0.2-0.6l0.3-0.6l-0.7-0.7l-0.6,0.3c-0.2-0.1-0.4-0.2-0.6-0.3L16.5,14l-1,0l-0.2,0.6
	c-0.2,0.1-0.4,0.1-0.6,0.2l-0.5-0.3l-0.7,0.7l0.3,0.6c-0.1,0.2-0.2,0.4-0.3,0.6L13,16.5l0,1l0.6,0.2c0.1,0.2,0.1,0.4,0.2,0.6
	l-0.3,0.5l0.7,0.7l0.6-0.3c0.2,0.1,0.4,0.2,0.6,0.3l0.1,0.6h1l0.2-0.6c0.2,0,0.4-0.1,0.6-0.2l0.5,0.3l0.7-0.7l-0.3-0.6
	c0.1-0.2,0.2-0.4,0.3-0.6L19,17.5z M16,18.7c-0.9,0-1.7-0.8-1.7-1.7c0-0.9,0.8-1.7,1.7-1.7c0.9,0,1.7,0.8,1.6,1.7
	C17.7,18,16.9,18.7,16,18.7z"/>
</svg>
