<?xml version="1.0" encoding="utf-8"?>
<!-- Generator: Adobe Illustrator 19.2.1, SVG Export Plug-In . SVG Version: 6.00 Build 0)  -->
<svg version="1.1"
	 id="Layer_1" inkscape:version="0.48.3.1 r9886" sodipodi:docname="script-web.svg" xmlns:cc="http://creativecommons.org/ns#" xmlns:dc="http://purl.org/dc/elements/1.1/" xmlns:inkscape="http://www.inkscape.org/namespaces/inkscape" xmlns:rdf="http://www.w3.org/1999/02/22-rdf-syntax-ns#" xmlns:sodipodi="http://sodipodi.sourceforge.net/DTD/sodipodi-0.dtd" xmlns:svg="http://www.w3.org/2000/svg"
	 xmlns="http://www.w3.org/2000/svg" xmlns:xlink="http://www.w3.org/1999/xlink" x="0px" y="0px"  
	 viewBox="0 0 24 24" style="enable-background:new 0 0 24 24;" xml:space="preserve">
<sodipodi:namedview  bordercolor="#666666" borderopacity="1" gridtolerance="10" guidetolerance="10" id="namedview7" inkscape:current-layer="Layer_1" inkscape:cx="16" inkscape:cy="16" inkscape:pageopacity="0" inkscape:pageshadow="2" inkscape:window-height="480" inkscape:window-maximized="0" inkscape:window-width="640" inkscape:window-x="0" inkscape:window-y="25" inkscape:zoom="7.375" objecttolerance="10" pagecolor="#ffffff" showgrid="false">
	</sodipodi:namedview>
<path d="M21,0H6C5.2,0,4.4,0.3,3.9,0.9S3,2.2,3,3v18H0c0,1.7,1.3,3,3,3h15c0.8,0,1.5-0.3,2.1-0.9c0.5-0.5,0.9-1.3,0.9-2.1V3h3
	C24,1.3,22.6,0,21,0z M20,3v18c0,2-1.5,2.5-1.5,2.5S17,23,17,21h-0.5C11.4,21,4,21,4,21V3c0-1.1,0.9-2,2-2h16C21.8,1,20,1,20,3z"/>
<path d="M12,5c-3.3,0-6,2.7-6,6s2.7,6,6,6s6-2.7,6-6S15.3,5,12,5z M16.6,9h-1.8c-0.2-1-0.5-1.9-0.9-2.6C15.1,6.9,16.1,7.8,16.6,9z
	 M14,11c0,0.4,0,0.7,0,1H10c0-0.3,0-0.6,0-1s0-0.7,0-1H14C14,10.3,14,10.6,14,11z M12,6c0,0,0.1,0,0.1,0c0.6,0.1,1.4,1.2,1.7,3h-3.6
	C10.6,7.1,11.4,6,12,6z M10.1,6.4C9.7,7.1,9.4,8,9.2,9H7.4C7.9,7.8,8.9,6.9,10.1,6.4z M7,11c0-0.3,0-0.7,0.1-1h2C9,10.3,9,10.7,9,11
	s0,0.7,0.1,1h-2C7,11.7,7,11.3,7,11z M7.4,13h1.8c0.2,1,0.5,1.9,0.9,2.6C8.9,15.1,7.9,14.2,7.4,13z M12,16c-0.6,0-1.4-1.1-1.8-3h3.6
	C13.4,14.9,12.6,16,12,16z M13.9,15.6c0.4-0.7,0.7-1.6,0.9-2.6h1.8C16.1,14.2,15.1,15.1,13.9,15.6z M14.9,12c0-0.3,0.1-0.7,0.1-1
	s0-0.7-0.1-1h1.9c0.1,0.3,0.1,0.7,0.1,1s0,0.7-0.1,1H14.9z"/>
</svg>
