<?xml version="1.0" encoding="utf-8"?>
<!-- Generator: Adobe Illustrator 19.2.1, SVG Export Plug-In . SVG Version: 6.00 Build 0)  -->
<svg version="1.1" id="Layer_1" xmlns="http://www.w3.org/2000/svg" xmlns:xlink="http://www.w3.org/1999/xlink" x="0px" y="0px"
	   viewBox="0 0 24 24" style="enable-background:new 0 0 24 24;" xml:space="preserve">
<path d="M21,0H6C5.15,0,4.4,0.32,3.86,0.86S3,2.15,3,3v18H0c0,1.7,1.3,3,3,3h15c0.8,0,1.55-0.32,2.1-0.86C20.65,22.6,21,21.85,21,21
	V3h3C24,1.3,22.6,0,21,0z M20,3v18c0,2.02-1.5,2.5-1.5,2.5S17,23,17,21h-1.52C10.44,21,4,21,4,21V3c0-1.1,0.9-2,2-2h15.98
	C21.79,1,20,1.05,20,3z"/>
<rect x="7" y="6" width="10" height="2"/>
<rect x="7" y="10" width="10" height="2"/>
<rect x="7" y="14" width="10" height="2"/>
</svg>
