<?xml version="1.0" encoding="utf-8"?>
<!-- Generator: Adobe Illustrator 21.0.2, SVG Export Plug-In . SVG Version: 6.00 Build 0)  -->
<svg version="1.1" id="Layer_1" xmlns="http://www.w3.org/2000/svg" xmlns:xlink="http://www.w3.org/1999/xlink" x="0px" y="0px"
	   viewBox="0 0 24 24" style="enable-background:new 0 0 24 24;" xml:space="preserve">
<g>
	<path d="M21,0H6C5.1,0,4.4,0.3,3.9,0.9S3,2.2,3,3v18H0c0,1.7,1.3,3,3,3h15c0.8,0,1.5-0.3,2.1-0.9c0.5-0.5,0.9-1.3,0.9-2.1V3h3
		C24,1.3,22.6,0,21,0z M20,21c0,2-1.5,2.5-1.5,2.5S17,23,17,21c-4.5,0-13,0-13,0V3c0-1.1,0.9-2,2-2h16c0,0-2,0-2,2
		C20,7.7,20,19.3,20,21z"/>
	<g>
		<path d="M4.825,15.922c0.84,0.675,1.845,1.065,2.925,1.065c1.05,0,1.785-0.375,1.785-1.2c0-0.72-0.465-1.005-1.29-1.32
			L6.91,13.987c-1.23-0.45-2.16-1.11-2.16-2.625c0-1.62,1.41-2.505,3.105-2.505c1.034,0,1.979,0.27,2.715,0.75v1.604
			c-0.766-0.585-1.605-0.989-2.686-0.989c-0.93,0-1.62,0.359-1.62,1.109c0,0.675,0.436,0.945,1.2,1.215l1.485,0.54
			c1.439,0.525,2.1,1.335,2.1,2.67c0,1.68-1.425,2.61-3.3,2.61c-1.229,0-2.28-0.36-2.925-0.811V15.922z"/>
		<path d="M13.614,15.217c0.105,1.305,0.99,1.86,2.055,1.86c0.75,0,1.275-0.181,1.905-0.615v1.32
			c-0.57,0.42-1.275,0.585-2.115,0.585c-1.95,0-3.3-1.32-3.3-3.42c0-2.085,1.275-3.54,3.06-3.54c1.846,0,2.806,1.32,2.806,3.27v0.54
			H13.614z M13.704,14.077H16.6c-0.046-0.81-0.511-1.41-1.365-1.41C14.574,12.667,13.93,13.058,13.704,14.077z"/>
	</g>
	<polygon points="14.589,9.911 12.598,7.473 13.47,6.554 14.789,7.673 18.031,4.535 18.903,5.754 	"/>
</g>
</svg>
