<?xml version="1.0" encoding="utf-8"?>
<!-- Generator: Adobe Illustrator 21.1.0, SVG Export Plug-In . SVG Version: 6.00 Build 0)  -->
<svg version="1.1" id="Layer_1" xmlns="http://www.w3.org/2000/svg" xmlns:xlink="http://www.w3.org/1999/xlink" x="0px" y="0px"
	   viewBox="0 0 24 24" style="enable-background:new 0 0 24 24;" xml:space="preserve">
<g>
	<path d="M21,0H6C5.2,0,4.4,0.3,3.9,0.9S3,2.2,3,3v18H0c0,1.7,1.3,3,3,3h15c0.8,0,1.5-0.3,2.1-0.9c0.5-0.5,0.9-1.3,0.9-2.1V3h3
		C24,1.3,22.6,0,21,0z M20,3v18c0,2-1.5,2.5-1.5,2.5S17,23,17,21h-1.5C10.4,21,4,21,4,21V3c0-1.1,0.9-2,2-2h16C21.8,1,20,1,20,3z"/>
</g>
<path d="M17.778,13.688c-0.917-1.587-4.005-6.929-4.648-8.059c-0.283-0.499-0.211-0.617,0.346-0.622
	c0.385-0.004,0.772,0.015,1.156-0.003c0.671-0.032,1.158,0.249,1.489,0.821c0.871,1.504,1.737,3.01,2.613,4.511
	c0.36,0.618,0.358,1.189-0.024,1.825C18.407,12.673,18.132,13.183,17.778,13.688z"/>
<path d="M9.615,17.305c-1.022,0-1.646-0.414-2.149-1.366C6.771,14.626,6,13.354,5.252,12.07c-0.325-0.558-0.343-1.096-0.006-1.656
	c0.258-0.428,0.488-0.873,0.733-1.31c0.142-0.252,0.239-0.316,0.42,0.007c1.187,2.108,4.162,7.327,4.461,7.83
	c0.155,0.262,0.093,0.365-0.199,0.364C10.358,17.304,10.057,17.305,9.615,17.305z"/>
<path d="M8.231,10.094C7.78,9.31,7.356,8.57,6.928,7.833c-0.101-0.174-0.038-0.318,0.05-0.469c0.433-0.737,0.532-0.932,0.975-1.663
	c0.26-0.43,0.67-0.66,1.165-0.686C9.619,4.99,10.124,5,10.627,5.014c0.416,0.011,0.514,0.186,0.304,0.542
	C9.942,7.228,9.271,8.348,8.231,10.094z"/>
<path d="M15.761,12.259c0.462,0.812,0.887,1.564,1.316,2.314c0.097,0.17,0.056,0.318-0.035,0.471
	c-0.425,0.721-0.525,0.921-0.962,1.634c-0.266,0.435-0.694,0.616-1.191,0.627c-0.485,0.011-0.971,0.008-1.456,0.003
	c-0.504-0.006-0.547-0.075-0.292-0.518C13.974,15.339,15.593,12.546,15.761,12.259z"/>
</svg>
