<?xml version="1.0" encoding="utf-8"?>
<!-- Generator: Adobe Illustrator 19.2.1, SVG Export Plug-In . SVG Version: 6.00 Build 0)  -->
<svg version="1.1" id="Layer_1" xmlns="http://www.w3.org/2000/svg" xmlns:xlink="http://www.w3.org/1999/xlink" x="0px" y="0px"
	   viewBox="0 0 24 24" style="enable-background:new 0 0 24 24;" xml:space="preserve">
<path d="M6.4,7L6,9h3.4l-1.2,6h2.3l1.2-6h3.1l0.4-2H6.4z"/>
<path d="M14.4,12l-0.8,4H17c-0.7,0.5-1.2,1.2-1.6,2H11l1.6-8h5.7l-0.4,2H14.4z"/>
<path d="M21,0H6C5.2,0,4.4,0.3,3.9,0.9S3,2.2,3,3v18H0c0,1.7,1.3,3,3,3h14c-1-0.7-1.6-1.8-1.9-3C10.1,21,4,21,4,21V3h16v12
	c0.3,0,0.7,0,1,0.1V3h3C24,1.3,22.6,0,21,0z M8,22h2v1H8V22z M14,2h-4V1h4V2z"/>
<path d="M20.3,16c-0.1,0-0.2,0-0.3,0s-0.2,0-0.3,0c-2.1,0.1-3.7,1.9-3.7,4s1.6,3.8,3.7,4c0.1,0,0.2,0,0.3,0s0.2,0,0.3,0
	c2.1-0.1,3.7-1.9,3.7-4S22.4,16.2,20.3,16z M22.6,18.5h-0.7c-0.1-0.4-0.1-0.7-0.3-1C22,17.7,22.4,18.1,22.6,18.5z M20,17
	c0.4,0,0.7,0.6,0.9,1.5h-1.7C19.3,17.6,19.6,17,20,17z M17,20.5c0-0.2,0-0.3,0-0.5s0-0.3,0-0.5h1c0,0.2,0,0.3,0,0.5s0,0.3,0,0.5H17z
	 M17.4,21.5h0.7c0.1,0.4,0.1,0.7,0.3,1C18,22.3,17.6,21.9,17.4,21.5z M18.1,18.5h-0.7c0.2-0.4,0.6-0.8,1-1
	C18.3,17.8,18.2,18.1,18.1,18.5z M20,23c-0.4,0-0.7-0.6-0.9-1.5h1.7C20.7,22.4,20.4,23,20,23z M19,20.5c0-0.2,0-0.3,0-0.5
	s0-0.3,0-0.5h2c0,0.2,0,0.3,0,0.5s0,0.3,0,0.5H19z M21.6,22.5c0.1-0.3,0.2-0.7,0.3-1h0.7C22.4,21.9,22,22.3,21.6,22.5z M22,20.5
	c0-0.2,0-0.3,0-0.5s0-0.3,0-0.5h1c0,0.2,0.1,0.3,0.1,0.5s0,0.3,0,0.5H22z"/>
</svg>
