<?xml version="1.0" encoding="utf-8"?>
<!-- Generator: Adobe Illustrator 21.1.0, SVG Export Plug-In . SVG Version: 6.00 Build 0)  -->
<svg version="1.1" id="Layer_1" xmlns="http://www.w3.org/2000/svg" xmlns:xlink="http://www.w3.org/1999/xlink" x="0px" y="0px"
	   viewBox="0 0 16 16" style="enable-background:new 0 0 16 16;" xml:space="preserve">
<g id="XMLID_2_">
	<rect x="5" y="9" width="6" height="1"/>
	<rect x="5" y="7" width="6" height="1"/>
	<rect x="5" y="5" width="6" height="1"/>
	<path d="M15.73,1C15.38,0.4,14.74,0,14,0H4C3.64,0,3.29,0.1,3,0.27C2.7,0.45,2.45,0.7,2.27,1C2.1,1.29,2,1.64,2,2v12H0
		c0,1.1,0.9,2,2,2h10c0.36,0,0.71-0.1,1-0.27c0.6-0.35,1-0.99,1-1.73V2h2C16,1.64,15.9,1.29,15.73,1z M13,2v12
		c0,0.07,0,0.14-0.02,0.2C12.89,14.66,12.48,15,12,15c-0.18,0-0.35-0.05-0.5-0.14C11.2,14.69,11,14.37,11,14H3V2c0-0.55,0.45-1,1-1
		h10C13.45,1,13,1.45,13,2z"/>
</g>
</svg>
