<?xml version="1.0" encoding="utf-8"?>
<!-- Generator: Adobe Illustrator 21.1.0, SVG Export Plug-In . SVG Version: 6.00 Build 0)  -->
<svg version="1.1" id="Layer_1" xmlns="http://www.w3.org/2000/svg" xmlns:xlink="http://www.w3.org/1999/xlink" x="0px" y="0px"
	   viewBox="0 0 24 24" style="enable-background:new 0 0 24 24;" xml:space="preserve">
<g id="XMLID_2_">
	<path d="M21,3h3c0-0.07,0-0.13-0.01-0.2c-0.04-0.69-0.32-1.32-0.76-1.8C22.69,0.38,21.88,0,21,0H6C5.23,0,4.53,0.3,4,0.78
		C3.91,0.84,3.84,0.91,3.78,1C3.3,1.53,3,2.23,3,3v1H2v15h1v2H0c0,1.66,1.35,3,3,3h15c0.76,0,1.46-0.29,2.01-0.77
		C20.61,22.69,21,21.88,21,21v-2h1V4h-1V3z M4,5h8v6h-2V7H9v4H7V7H6v4H4V5z M20,9v2h-7V5h6v4H20z M18,12v2h-2v4h-2v-4h-2v-2H18z
		 M5,14v-2h6v2H9v4H7v-4H5z M20.01,21c0,0.07,0,0.14-0.01,0.21c-0.1,1.01-0.96,1.8-2,1.8c-1.1,0-2-0.9-2-2.01H4v-2h16.01V21z
		 M20.01,3v1H4V3c0-1.1,0.9-2,2-2h16c-0.37,0-0.7,0.11-1,0.29C20.4,1.62,20.01,2.26,20.01,3z"/>
</g>
<rect x="15" y="7" width="2" height="2"/>
</svg>
