<?xml version="1.0" encoding="utf-8"?>
<!-- Generator: Adobe Illustrator 19.2.1, SVG Export Plug-In . SVG Version: 6.00 Build 0)  -->
<svg version="1.1" id="Layer_1" xmlns="http://www.w3.org/2000/svg" xmlns:xlink="http://www.w3.org/1999/xlink" x="0px" y="0px"
	   viewBox="0 0 24 24" style="enable-background:new 0 0 24 24;" xml:space="preserve">
<path d="M21,0H6C5.15,0,4.4,0.32,3.86,0.86C3.32,1.4,3,2.15,3,3v18H0c0,1.7,1.3,3,3,3h15c0.8,0,1.55-0.32,2.1-0.86
	C20.65,22.6,21,21.85,21,21V3h3C24,1.3,22.6,0,21,0z M20,3v5h-9.21C10.41,7.12,9.53,6.5,8.5,6.5C7.12,6.5,6,7.62,6,9
	s1.12,2.5,2.5,2.5c1.03,0,1.91-0.62,2.29-1.5H20v4h-3.21c-0.38-0.88-1.26-1.5-2.29-1.5c-1.38,0-2.5,1.12-2.5,2.5s1.12,2.5,2.5,2.5
	c1.03,0,1.91-0.62,2.29-1.5H20v5c0,2.02-1.5,2.5-1.5,2.5S17,23,17,21h-1.52C10.44,21,4,21,4,21V3c0-1.1,0.9-2,2-2h15.98
	C21.79,1,20,1.05,20,3z M9.66,9c0,0.64-0.52,1.16-1.16,1.16S7.34,9.64,7.34,9S7.86,7.84,8.5,7.84S9.66,8.36,9.66,9z M15.66,15
	c0,0.64-0.52,1.16-1.16,1.16s-1.16-0.52-1.16-1.16s0.52-1.16,1.16-1.16S15.66,14.36,15.66,15z"/>
</svg>
