<?xml version="1.0" encoding="utf-8"?>
<!-- Generator: Adobe Illustrator 19.2.1, SVG Export Plug-In . SVG Version: 6.00 Build 0)  -->
<svg version="1.1" id="Layer_1" xmlns="http://www.w3.org/2000/svg" xmlns:xlink="http://www.w3.org/1999/xlink" x="0px" y="0px"
	   viewBox="0 0 24 24" style="enable-background:new 0 0 24 24;" xml:space="preserve">
<path d="M11,13H8v4H6V7h6v2H8v2h3V13z M19,17h-2l-1.5-2.1L14,17h-2l2.5-3.5L12,10h2l1.5,2.1L17,10h2l-2.5,3.5L19,17z"/>
<path d="M21,0H6C5.1,0,4.4,0.3,3.9,0.9S3,2.2,3,3v18H0c0,1.7,1.3,3,3,3h15c0.8,0,1.5-0.3,2.1-0.9c0.5-0.5,0.9-1.3,0.9-2.1V3h3
	C24,1.3,22.6,0,21,0z M20,21c0,2-1.5,2.5-1.5,2.5S17,23,17,21c-4.5,0-13,0-13,0V3c0-1.1,0.9-2,2-2h16c0,0-2,0-2,2
	C20,7.7,20,19.3,20,21z"/>
</svg>
