<?xml version="1.0" encoding="utf-8"?>
<!-- Generator: Adobe Illustrator 19.2.1, SVG Export Plug-In . SVG Version: 6.00 Build 0)  -->
<svg version="1.1" id="Layer_1" xmlns="http://www.w3.org/2000/svg" xmlns:xlink="http://www.w3.org/1999/xlink" x="0px" y="0px"
	   viewBox="0 0 24 24" style="enable-background:new 0 0 24 24;" xml:space="preserve">
<path d="M21,0H6C5.2,0,4.4,0.3,3.9,0.9C3.3,1.4,3,2.2,3,3v18H0c0,1.7,1.3,3,3,3h15c0.8,0,1.5-0.3,2.1-0.9c0.6-0.5,0.9-1.3,0.9-2.1V3
	h3C24,1.3,22.6,0,21,0z M10,1h4v1h-4V1z M10,23H8v-1h2V23z M20,21c0,2-1.5,2.5-1.5,2.5S17,23,17,21h-1.5C10.4,21,4,21,4,21V3h16V21z
	"/>
<rect x="7" y="15" width="10" height="2"/>
<rect x="7" y="11" width="10" height="2"/>
<rect x="7" y="7" width="10" height="2"/>
</svg>
