<?xml version="1.0" encoding="utf-8"?>
<!-- Generator: Adobe Illustrator 19.2.1, SVG Export Plug-In . SVG Version: 6.00 Build 0)  -->
<svg version="1.1" id="Layer_1" xmlns="http://www.w3.org/2000/svg" xmlns:xlink="http://www.w3.org/1999/xlink" x="0px" y="0px"
	   viewBox="0 0 24 24" style="enable-background:new 0 0 24 24;" xml:space="preserve">
<path d="M21,6V3h3c0-1.7-1.4-3-3-3H6C5.1,0,4.4,0.3,3.9,0.9C3.4,1.4,3,2.2,3,3v3H0v12h3v3H0c0,1.7,1.3,3,3,3h15
	c0.8,0,1.5-0.3,2.1-0.9c0.5-0.5,0.9-1.3,0.9-2.1V10.3L25.5,6H21z M2,16V8h10v8H2z M20,21c0,2-1.5,2.5-1.5,2.5S17,23,17,21h-1.5
	C10.5,21,4,21,4,21v-3h8.9l7.1-6.8V21z M20,3v3H4V3c0-1.1,0.9-2,2-2h16C21.8,1,20,1,20,3z"/>
<rect x="3" y="10" width="8" height="5"/>
</svg>
