<?xml version="1.0" encoding="utf-8"?>
<!-- Generator: Adobe Illustrator 22.1.0, SVG Export Plug-In . SVG Version: 6.00 Build 0)  -->
<svg version="1.1" id="Layer_1" xmlns="http://www.w3.org/2000/svg" xmlns:xlink="http://www.w3.org/1999/xlink" x="0px" y="0px"
	   viewBox="0 0 24 24" style="enable-background:new 0 0 24 24;" xml:space="preserve">
<path d="M21,3h3c0-0.07,0-0.14-0.01-0.21c-0.05-0.68-0.33-1.31-0.77-1.78C22.68,0.39,21.88,0,21,0H6C5.23,0,4.53,0.29,3.99,0.78
	C3.91,0.84,3.84,0.92,3.76,1.01C3.28,1.53,3,2.24,3,3v2H0v13h3v3H0c0,1.65,1.33,3,3,3h15c0.76,0,1.47-0.28,1.99-0.78
	C20.61,22.68,21,21.88,21,21v-3h3V5h-3V3z M3.99,3.005C3.99,1.892,4.89,1,6,1h16c-0.36,0-0.72,0.1-1,0.281
	c-0.6,0.341-1.01,0.972-1.01,1.724V5.01h-16V3.005z M3.99,9.14c0.69-0.8,1.69-1.26,2.91-1.26c2.31,0,3.91,1.72,3.91,4.12
	c0,2.38-1.6,4.13-3.91,4.13c-1.22,0-2.22-0.49-2.91-1.28C3.36,14.13,3,13.14,3,12S3.36,9.87,3.99,9.14z M19.99,21
	c0,0.06,0,0.12-0.01,0.18C19.89,22.2,19.03,23,18,23c-1.11,0-2.01-0.89-2.01-2h-12v-3h16V21z M21.46,8L21,9.75l-1.01,3.81
	l-0.64,2.45h-1.92l-1.23-4.7l-1.26,4.7h-1.91L10.93,8h2.15l1.11,4.71L15.42,8h1.59l1.23,4.71L19.35,8H21.46z"/>
<path d="M8.7,12c0,1.38-0.72,2.3-1.8,2.3c-1.1,0-1.8-0.92-1.8-2.3s0.7-2.29,1.8-2.29C7.98,9.71,8.7,10.62,8.7,12z"/>
</svg>
