<?xml version="1.0" encoding="utf-8"?>
<!-- Generator: Adobe Illustrator 22.0.1, SVG Export Plug-In . SVG Version: 6.00 Build 0)  -->
<svg version="1.1" id="Layer_1" xmlns="http://www.w3.org/2000/svg" xmlns:xlink="http://www.w3.org/1999/xlink" x="0px" y="0px"
	 viewBox="0 0 24 24" style="enable-background:new 0 0 24 24;" xml:space="preserve">
<path d="M21,3h3c0-1.7-1.4-3-3-3H6C5.1,0,4.4,0.3,3.9,0.9S3,2.2,3,3v4H0v11h3v3H0c0,1.7,1.3,3,3,3h15c0.8,0,1.5-0.3,2.1-0.9
	c0.5-0.5,0.9-1.3,0.9-2.1v-3h3V7h-3V3z M4,3c0-1.1,0.9-2,2-2h16c0,0-2,0-2,2v4H4V3z M12,9v7h-1V9H12z M5,15h4v-2H5V9h5v1H6v2h4v4H5
	V15z M20,21c0,2-1.5,2.5-1.5,2.5S17,23,17,21c-4.5,0-13,0-13,0v-3h16V21z M18,10h-4v2h4v1h-4v2h4v1h-5V9h5V10z"/>
</svg>
