<?xml version="1.0" encoding="utf-8"?>
<!-- Generator: Adobe Illustrator 20.1.0, SVG Export Plug-In . SVG Version: 6.00 Build 0)  -->
<svg version="1.1" id="Layer_1" xmlns="http://www.w3.org/2000/svg" xmlns:xlink="http://www.w3.org/1999/xlink" x="0px" y="0px"
	   viewBox="0 0 24 24" style="enable-background:new 0 0 24 24;" xml:space="preserve">
<g>
	<path d="M21,0H6C5.2,0,4.4,0.3,3.9,0.9S3,2.2,3,3v18H0c0,1.7,1.3,3,3,3h15c0.8,0,1.5-0.3,2.1-0.9c0.5-0.5,0.9-1.3,0.9-2.1V3h3
		C24,1.3,22.6,0,21,0z M20,3v18c0,2-1.5,2.5-1.5,2.5S17,23,17,21h-1.5C10.4,21,4,21,4,21V3c0-1.1,0.9-2,2-2h16C21.8,1,20,1,20,3z"/>
</g>
<path d="M15.745,11.197h-1.328h-4.5c0,1.243,1.007,2.25,2.25,2.25h3.578c-0.478,1.522-1.899,2.625-3.578,2.625
	s-3.1-1.103-3.578-2.625c-0.112-0.355-0.172-0.733-0.172-1.125c0-0.392,0.06-0.77,0.172-1.125c0.478-1.522,1.899-2.625,3.578-2.625
	h3.75c0.285,0,0.558-0.053,0.81-0.15c0.843-0.325,1.44-1.143,1.44-2.1h-4.5h-1.5c-1.603,0-3.109,0.624-4.243,1.757
	C7.767,8.237,7.619,8.401,7.482,8.572c-0.617,0.767-1.03,1.665-1.211,2.625c-0.069,0.367-0.105,0.743-0.105,1.125
	c0,0.382,0.035,0.758,0.105,1.125c0.221,1.174,0.789,2.254,1.652,3.118c1.133,1.133,2.64,1.757,4.243,1.757s3.109-0.624,4.243-1.757
	c0.863-0.863,1.431-1.943,1.652-3.118c0.07-0.367,0.105-0.743,0.105-1.125c0-0.382-0.036-0.758-0.105-1.125H15.745z"/>
</svg>
