<?xml version="1.0" encoding="utf-8"?>
<!-- Generator: Adobe Illustrator 21.0.0, SVG Export Plug-In . SVG Version: 6.00 Build 0)  -->
<svg version="1.1" id="Layer_1" xmlns="http://www.w3.org/2000/svg" xmlns:xlink="http://www.w3.org/1999/xlink" x="0px" y="0px"
	   viewBox="0 0 16 16" style="enable-background:new 0 0 16 16;" xml:space="preserve">
<g id="search_icon_copy">
	<path d="M6.5,0C10.1,0,13,2.9,13,6.5c0,1.3-0.4,2.5-1.1,3.6c0,0,3.2,3.2,3.7,3.7c0.5,0.5,0.5,1.4,0,1.9s-1.4,0.5-1.9,0
		c-0.5-0.5-3.7-3.7-3.7-3.7c-1,0.7-2.3,1.1-3.6,1.1C2.9,13,0,10.1,0,6.5S2.9,0,6.5,0z M6.5,10.5c2.2,0,4-1.8,4-4s-1.8-4-4-4
		c-2.2,0-4,1.8-4,4S4.3,10.5,6.5,10.5z"/>
</g>
</svg>
