<?xml version="1.0" encoding="utf-8"?>
<!-- Generator: Adobe Illustrator 18.1.1, SVG Export Plug-In . SVG Version: 6.00 Build 0)  -->
<!DOCTYPE svg PUBLIC "-//W3C//DTD SVG 1.1//EN" "http://www.w3.org/Graphics/SVG/1.1/DTD/svg11.dtd">
<svg version="1.1" id="Layer_1" xmlns="http://www.w3.org/2000/svg" xmlns:xlink="http://www.w3.org/1999/xlink" x="0px" y="0px"
	 viewBox="0 0 16 16" enable-background="new 0 0 16 16" xml:space="preserve">
<rect y="5" width="16" height="3"/>
<polygon points="16,4 0,4 2,0 14,0 "/>
<rect x="14" y="6" fill="#FFFFFF" width="1" height="1"/>
<rect x="1" y="6" fill="#FFFFFF" width="1" height="1"/>
<rect x="3" y="6" fill="#FFFFFF" width="1" height="1"/>
<rect x="5" y="6" fill="#FFFFFF" width="1" height="1"/>
<rect x="7" y="6" fill="#FFFFFF" width="1" height="1"/>
<rect y="9" width="16" height="3"/>
<rect x="14" y="10" fill="#FFFFFF" width="1" height="1"/>
<rect x="1" y="10" fill="#FFFFFF" width="1" height="1"/>
<rect x="3" y="10" fill="#FFFFFF" width="1" height="1"/>
<rect x="5" y="10" fill="#FFFFFF" width="1" height="1"/>
<rect x="7" y="10" fill="#FFFFFF" width="1" height="1"/>
<rect y="13" width="16" height="3"/>
<rect x="14" y="14" fill="#FFFFFF" width="1" height="1"/>
<rect x="1" y="14" fill="#FFFFFF" width="1" height="1"/>
<rect x="3" y="14" fill="#FFFFFF" width="1" height="1"/>
<rect x="5" y="14" fill="#FFFFFF" width="1" height="1"/>
<rect x="7" y="14" fill="#FFFFFF" width="1" height="1"/>
</svg>
