<?xml version="1.0" encoding="utf-8"?>
<!-- Generator: Adobe Illustrator 19.0.0, SVG Export Plug-In . SVG Version: 6.00 Build 0)  -->
<svg version="1.1" id="Layer_1" xmlns="http://www.w3.org/2000/svg" xmlns:xlink="http://www.w3.org/1999/xlink" x="0px" y="0px"
	   viewBox="0 0 16 16" style="enable-background:new 0 0 16 16;" xml:space="preserve">
<path d="M14.1,6.9l1.8-1.6l-1.5-2.6l-2.3,0.7c-0.5-0.5-1.2-0.9-1.9-1.1L9.7,0h-3L6.2,2.3c-0.3,0.1-0.7,0.3-1,0.5S4.6,3.2,4.3,3.4
	L2,2.7L0.5,5.3l1.8,1.6c-0.1,0.7-0.1,1.5,0,2.2l-1.8,1.6L2,13.3l2.3-0.7c0.5,0.5,1.2,0.9,1.9,1.1L6.7,16h3l0.5-2.3
	c0.3-0.1,0.7-0.3,1-0.5s0.6-0.4,0.9-0.6l2.3,0.7l1.5-2.6l-1.8-1.6C14.2,8.4,14.2,7.6,14.1,6.9z M8.2,11c-1.7,0-3-1.3-3-3s1.3-3,3-3
	s3,1.3,3,3S9.9,11,8.2,11z"/>
</svg>
