<?xml version="1.0" encoding="utf-8"?>
<!-- Generator: Adobe Illustrator 22.0.0, SVG Export Plug-In . SVG Version: 6.00 Build 0)  -->
<svg version="1.1" id="Layer_1" xmlns="http://www.w3.org/2000/svg" xmlns:xlink="http://www.w3.org/1999/xlink" x="0px" y="0px"
	 viewBox="0 0 16 16" style="enable-background:new 0 0 16 16;" xml:space="preserve">
<path d="M8,3C3,3,0,8,0,8s3,5,8,5s8-5,8-5S13,3,8,3z M8,11.5c-1.9,0-3.5-1.6-3.5-3.5S6.1,4.5,8,4.5s3.5,1.6,3.5,3.5S9.9,11.5,8,11.5
	z"/>
<path d="M8,5.5C6.6,5.5,5.5,6.6,5.5,8s1.1,2.5,2.5,2.5s2.5-1.1,2.5-2.5S9.4,5.5,8,5.5z M8.8,8C8.3,8,8,7.7,8,7.3s0.3-0.8,0.8-0.8
	s0.8,0.3,0.8,0.8S9.2,8,8.8,8z"/>
</svg>
