<?xml version="1.0" encoding="utf-8"?>
<!-- Generator: Adobe Illustrator 19.2.1, SVG Export Plug-In . SVG Version: 6.00 Build 0)  -->
<svg version="1.1" id="Layer_1" xmlns="http://www.w3.org/2000/svg" xmlns:xlink="http://www.w3.org/1999/xlink" x="0px" y="0px"
	   viewBox="0 0 24 24" style="enable-background:new 0 0 24 24;" xml:space="preserve">
<g>
	<rect y="10" width="5" height="5"/>
	<rect x="6" width="5" height="15"/>
	<path d="M17,5v3.8c-1.8,1-3,3-3,5.2c0,0.3,0,0.7,0.1,1H12V5H17z"/>
	<path d="M24,14c0,1-0.4,2-1.1,2.7C22.1,17.5,21.1,18,20,18s-2.2-0.5-2.9-1.3c-0.5-0.6-0.9-1.2-1-1.9C16,14.6,16,14.2,16,14
		c0-1.3,0.6-2.5,1.6-3.2c0.6-0.5,1.5-0.8,2.4-0.8C22.2,10,24,11.7,24,14z"/>
	<path d="M25,24l-5-2l-5,2l1.2-5.4c1,0.9,2.4,1.4,3.8,1.4s2.8-0.5,3.8-1.4L25,24z"/>
</g>
</svg>
