<?xml version="1.0" encoding="utf-8"?>
<!-- Generator: Adobe Illustrator 19.2.1, SVG Export Plug-In . SVG Version: 6.00 Build 0)  -->
<svg version="1.1" id="Layer_1" xmlns="http://www.w3.org/2000/svg" xmlns:xlink="http://www.w3.org/1999/xlink" x="0px" y="0px"
	   viewBox="0 0 16 16" style="enable-background:new 0 0 16 16;" xml:space="preserve">
<path d="M15,3H5V2H2v1H1C0.5,3,0,3.5,0,4v8c0,0.6,0.5,1,1,1h14c0.6,0,1-0.4,1-1V4C16,3.5,15.6,3,15,3z M8,11c-1.7,0-3-1.3-3-3
	s1.3-3,3-3s3,1.3,3,3S9.7,11,8,11z M15,5h-3V4h3V5z"/>
<circle cx="8" cy="8" r="2"/>
</svg>
