<?xml version="1.0" encoding="utf-8"?>
<!-- Generator: Adobe Illustrator 16.0.0, SVG Export Plug-In . SVG Version: 6.00 Build 0)  -->
<!DOCTYPE svg PUBLIC "-//W3C//DTD SVG 1.1//EN" "http://www.w3.org/Graphics/SVG/1.1/DTD/svg11.dtd">
<svg version="1.1" id="Layer_1" xmlns="http://www.w3.org/2000/svg" xmlns:xlink="http://www.w3.org/1999/xlink" x="0px" y="0px"
	 width="15.998px" height="16.002px" viewBox="0 0 15.998 16.002" enable-background="new 0 0 15.998 16.002" xml:space="preserve">
<g id="_x31_6_42_">
	<path d="M0,0v15.002h15.998V0H0z M6,3h3.998v2H6V3z M6,6h3.998v2H6V6z M6,9.002h3.998v2H6V9.002z M5,14.002H1v-2h4V14.002z
		 M5,11.002H1v-2h4V11.002z M5,8H1V6h4V8z M5,5H1V3h4V5z M6,14.002v-2h3.998v2H6z M14.998,14.002h-4v-2h4V14.002z M14.998,11.002h-4
		v-2h4V11.002z M14.998,8h-4V6h4V8z M14.998,5h-4V3h4V5z"/>
</g>
</svg>
