<?xml version="1.0" encoding="utf-8"?>
<!-- Generator: Adobe Illustrator 23.0.0, SVG Export Plug-In . SVG Version: 6.00 Build 0)  -->
<svg version="1.1" id="Layer_1" xmlns="http://www.w3.org/2000/svg" xmlns:xlink="http://www.w3.org/1999/xlink" x="0px" y="0px"
	 width="16px" height="16px" viewBox="0 0 16 16" style="enable-background:new 0 0 16 16;" xml:space="preserve">
<path d="M8,1.5c3.6,0,6.5,2.9,6.5,6.5s-2.9,6.5-6.5,6.5S1.5,11.6,1.5,8S4.4,1.5,8,1.5 M8,0C3.6,0,0,3.6,0,8s3.6,8,8,8s8-3.6,8-8
	S12.4,0,8,0L8,0z"/>
<path d="M11.5,11.5c-0.2,0.2-0.5,0.3-0.7,0.3c-0.3,0-0.5-0.1-0.7-0.3c0,0-2.5-2.5-2.7-2.7S7,8.3,7,8V4c0-0.5,0.5-1,1-1s1,0.5,1,1
	v3.6l2.5,2.5C11.9,10.5,11.9,11.2,11.5,11.5z"/>
</svg>
