<?xml version="1.0" encoding="utf-8"?>
<!-- Generator: Adobe Illustrator 21.1.0, SVG Export Plug-In . SVG Version: 6.00 Build 0)  -->
<svg version="1.1" id="Layer_1" xmlns="http://www.w3.org/2000/svg" xmlns:xlink="http://www.w3.org/1999/xlink" x="0px" y="0px"
	   viewBox="0 0 16 16" style="enable-background:new 0 0 16 16;" xml:space="preserve">
<path d="M12,8c-2.21,0-4,1.79-4,4s1.79,4,4,4s4-1.79,4-4S14.21,8,12,8z M11.5,13.65l-1.6-1.6l0.7-0.7l0.95,0.9l1.9-1.9l0.65,0.7
	L11.5,13.65z"/>
<polygon points="4,16 4,14 0,14 0,3 2,3 2,12 4,12 4,10 7,13 "/>
<path d="M12,2v5c-0.71,0-1.39,0.15-2,0.41V4H8v2L5,3l3-3v2H12z"/>
</svg>
