<?xml version="1.0" encoding="utf-8"?>
<!-- Generator: Adobe Illustrator 21.1.0, SVG Export Plug-In . SVG Version: 6.00 Build 0)  -->
<svg version="1.1" id="Layer_1" xmlns="http://www.w3.org/2000/svg" xmlns:xlink="http://www.w3.org/1999/xlink" x="0px" y="0px"
	   viewBox="0 0 16 16" style="enable-background:new 0 0 16 16;" xml:space="preserve">
<path d="M12,8c-2.21,0-4,1.79-4,4s1.79,4,4,4s4-1.79,4-4S14.21,8,12,8z M14.61,13.65l-0.96,0.96L12,12.99V13h-0.01l-1.64,1.61
	l-0.96-0.96L11.07,12l-1.64-1.61l0.96-0.96L12,11.07l1.65-1.64l0.96,0.96L12.96,12L14.61,13.65z"/>
<polygon points="2,12 4,12 4,10 7,13 4,16 4,14 0,14 0,3 2,3 "/>
<path d="M12,2v5c-0.71,0-1.39,0.15-2,0.41V4H8v2L5,3l3-3v2H12z"/>
</svg>
