<?xml version="1.0" encoding="utf-8"?>
<!-- Generator: Adobe Illustrator 20.1.0, SVG Export Plug-In . SVG Version: 6.00 Build 0)  -->
<svg version="1.1" id="Layer_1" xmlns="http://www.w3.org/2000/svg" xmlns:xlink="http://www.w3.org/1999/xlink" x="0px" y="0px"
	   viewBox="0 0 16 16" style="enable-background:new 0 0 16 16;" xml:space="preserve">
<g id="Layer_2">
	<path id="XMLID_31_" d="M16,13.7V16H0v-2.3l5.7-2.3V9.7c0-0.4-0.1-0.7-0.2-1L4.9,7.6c-0.2-0.5-0.4-1-0.4-1.5V3.6
		c0-1.8,1.4-3.5,3.2-3.6c1-0.1,2,0.3,2.7,1c0.6,0.6,1,1.5,1,2.4V6c0,0.5-0.1,1-0.4,1.5l-0.5,1.1c-0.2,0.3-0.2,0.7-0.2,1v1.7L16,13.7
		z"/>
</g>
</svg>
