<?xml version="1.0" encoding="utf-8"?>
<!-- Generator: Adobe Illustrator 23.0.1, SVG Export Plug-In . SVG Version: 6.00 Build 0)  -->
<svg version="1.1" id="Layer_1" xmlns="http://www.w3.org/2000/svg" xmlns:xlink="http://www.w3.org/1999/xlink" x="0px" y="0px"
	 viewBox="0 0 16 16" style="enable-background:new 0 0 16 16;" xml:space="preserve">
<path d="M7,12l0,3h0.9c0.1,0.1,0.2,0.2,0.3,0.4c0.2,0.2,0.4,0.4,0.7,0.6H6v-1H2v-2h4v-1H2c0-4,0-6,6-6c2.4,0,3.8,0.3,4.7,0.9
	c-0.2,0-0.4,0-0.6,0C9.2,6.9,7,9.2,7,12z"/>
<path id="XMLID_29_" d="M8,6C6.3,6,5,4.7,5,3s1.3-3,3-3s3,1.4,3,3S9.6,6,8,6z"/>
<path d="M13.7,8.4C13.2,8.1,12.6,8,12,8c-2.2,0-4,1.8-4,4c0,0.4,0,0.7,0.1,1c0.2,0.6,0.5,1.2,0.9,1.6c0.3,0.3,0.6,0.6,1,0.8
	c0.6,0.4,1.3,0.6,2,0.6c2.2,0,4-1.8,4-4C16,10.4,15.1,9,13.7,8.4z M13.8,13l0.4,0.4l-0.8,0.8L12.1,13L12,12.9L11.9,13l-1.3,1.3
	l-0.8-0.8l0.4-0.4l1-1l-1.4-1.4l0.8-0.8l1.4,1.4l1.4-1.4l0.6,0.5l0.3,0.3L14,10.9L12.8,12L13.8,13z"/>
</svg>
