<?xml version="1.0" encoding="utf-8"?>
<!-- Generator: Adobe Illustrator 21.1.0, SVG Export Plug-In . SVG Version: 6.00 Build 0)  -->
<svg version="1.1" id="Layer_1" xmlns="http://www.w3.org/2000/svg" xmlns:xlink="http://www.w3.org/1999/xlink" x="0px" y="0px"
	   viewBox="0 0 16 16" style="enable-background:new 0 0 16 16;" xml:space="preserve">
<path d="M12,8c0,1.48-0.8,2.77-2,3.46v-1.23c0.62-0.54,1-1.34,1-2.23c0-1.66-1.34-3-3-3S5,6.34,5,8c0,0.89,0.38,1.69,1,2.23v1.23
	C4.8,10.77,4,9.48,4,8c0-2.21,1.79-4,4-4S12,5.79,12,8z"/>
<path d="M16,8c0,3.72-2.55,6.85-6,7.75v-1.04c2.89-0.86,5-3.53,5-6.71c0-3.87-3.13-7-7-7S1,4.13,1,8c0,3.18,2.11,5.85,5,6.71v1.04
	C2.55,14.85,0,11.72,0,8c0-4.41,3.59-8,8-8S16,3.59,16,8z"/>
<path d="M10,8c0,0.5-0.18,0.96-0.5,1.31C9.36,9.48,9.19,9.62,9,9.73V16H7V9.73C6.81,9.62,6.64,9.48,6.5,9.31C6.18,8.96,6,8.5,6,8
	c0-1.1,0.9-2,2-2S10,6.9,10,8z"/>
</svg>
