<?xml version="1.0" encoding="utf-8"?>
<!-- Generator: Adobe Illustrator 21.1.0, SVG Export Plug-In . SVG Version: 6.00 Build 0)  -->
<svg version="1.1" id="Layer_1" xmlns="http://www.w3.org/2000/svg" xmlns:xlink="http://www.w3.org/1999/xlink" x="0px" y="0px"
	   viewBox="0 0 16 16" style="enable-background:new 0 0 16 16;" xml:space="preserve">
<path d="M12,8c0,1.5-0.8,2.8-2,3.5v-1.2c0.6-0.5,1-1.3,1-2.2c0-1.7-1.3-3-3-3S5,6.3,5,8c0,0.9,0.4,1.7,1,2.2v1.2c-1.2-0.7-2-2-2-3.5
	c0-2.2,1.8-4,4-4S12,5.8,12,8z"/>
<path d="M14,8c0,2.6-1.7,4.8-4,5.7v-1.1c1.8-0.8,3-2.5,3-4.6c0-2.8-2.2-5-5-5S3,5.2,3,8c0,2,1.2,3.8,3,4.6v1.1c-2.3-0.8-4-3-4-5.7
	c0-3.3,2.7-6,6-6S14,4.7,14,8z"/>
<path d="M16,8c0,3.7-2.5,6.8-6,7.8v-1c2.9-0.9,5-3.5,5-6.7c0-3.9-3.1-7-7-7S1,4.1,1,8c0,3.2,2.1,5.8,5,6.7v1c-3.5-0.9-6-4-6-7.8
	c0-4.4,3.6-8,8-8S16,3.6,16,8z"/>
<path d="M10,8c0,0.5-0.2,1-0.5,1.3C9.4,9.5,9.2,9.6,9,9.7V16H7V9.7C6.8,9.6,6.6,9.5,6.5,9.3C6.2,9,6,8.5,6,8c0-1.1,0.9-2,2-2
	S10,6.9,10,8z"/>
</svg>
