<?xml version="1.0" encoding="utf-8"?>
<!-- Generator: Adobe Illustrator 18.1.1, SVG Export Plug-In . SVG Version: 6.00 Build 0)  -->
<!DOCTYPE svg PUBLIC "-//W3C//DTD SVG 1.1//EN" "http://www.w3.org/Graphics/SVG/1.1/DTD/svg11.dtd">
<svg version="1.1" id="Layer_1" xmlns="http://www.w3.org/2000/svg" xmlns:xlink="http://www.w3.org/1999/xlink" x="0px" y="0px"
	   viewBox="0 0 24 24" enable-background="new 0 0 24 24" xml:space="preserve">
<path d="M12.3,0c-0.1,0-0.2,0-0.3,0s-0.2,0-0.3,0C5.2,0.2,0,5.5,0,12s5.2,11.9,11.7,12c0.1,0,0.2,0,0.3,0s0.2,0,0.3,0
	C18.8,23.9,24,18.5,24,12S18.8,0.2,12.3,0z M20.7,7h-3.2c-0.4-1.6-0.9-3.1-1.6-4.2C17.9,3.6,19.6,5.1,20.7,7z M12,2
	c1.1,0,2.6,1.8,3.4,5H8.6C9.4,3.8,10.9,2,12,2z M8.2,2.8C7.5,3.9,6.9,5.4,6.6,7H3.3C4.4,5.1,6.1,3.6,8.2,2.8z M2,12
	c0-1.1,0.2-2.1,0.5-3h3.7C6.1,10,6,11,6,12s0.1,2,0.2,3H2.5C2.2,14.1,2,13.1,2,12z M3.3,17h3.2c0.4,1.6,0.9,3.1,1.6,4.2
	C6.1,20.4,4.4,18.9,3.3,17z M8,12c0-1.1,0.1-2.1,0.2-3h7.6c0.1,0.9,0.2,1.9,0.2,3s-0.1,2.1-0.2,3H8.2C8.1,14.1,8,13.1,8,12z M8.6,17
	h6.8c-0.8,3.1-2.3,5-3.4,5S9.4,20.1,8.6,17z M15.8,21.2c0.7-1.1,1.2-2.6,1.6-4.2h3.2C19.6,18.9,17.9,20.4,15.8,21.2z M17.8,15
	c0.1-1,0.2-2,0.2-3s-0.1-2-0.2-3h3.7c0.3,0.9,0.5,1.9,0.5,3s-0.2,2.1-0.5,3H17.8z"/>
</svg>
