<?xml version="1.0" encoding="utf-8"?>
<!-- Generator: Adobe Illustrator 21.1.0, SVG Export Plug-In . SVG Version: 6.00 Build 0)  -->
<svg version="1.1" id="Layer_1" xmlns="http://www.w3.org/2000/svg" xmlns:xlink="http://www.w3.org/1999/xlink" x="0px" y="0px"
	   viewBox="0 0 16 16" style="enable-background:new 0 0 16 16;" xml:space="preserve">
<path d="M9.56,12.75L8,14.31l-1.56-1.56C6.81,12.29,7.37,12,8,12S9.19,12.29,9.56,12.75z"/>
<path d="M11.69,10.62l-1.07,1.07C9.98,10.96,9.04,10.5,8,10.5s-1.98,0.46-2.62,1.19l-1.07-1.07C5.23,9.63,6.54,9,8,9
	S10.77,9.63,11.69,10.62z"/>
<path d="M13.81,8.5l-1.07,1.07C11.56,8.29,9.87,7.5,8,7.5S4.44,8.29,3.26,9.57L2.19,8.5C3.65,6.96,5.71,6,8,6S12.35,6.96,13.81,8.5z
	"/>
<path d="M15.93,6.38l-1.06,1.06C13.14,5.63,10.7,4.5,8,4.5S2.86,5.63,1.13,7.44L0.07,6.38c1.5-1.57,3.46-2.68,5.66-3.15
	C6.11,3.15,6.49,3.1,6.87,3.06C7.02,3.04,7.16,3.03,7.3,3.02C7.77,3,8.23,3,8.7,3.02c0.14,0.01,0.28,0.02,0.43,0.04
	c0.38,0.04,0.76,0.09,1.14,0.17C12.47,3.7,14.43,4.81,15.93,6.38z"/>
</svg>
