<?xml version="1.0" encoding="utf-8"?>
<!-- Generator: Adobe Illustrator 16.0.3, SVG Export Plug-In . SVG Version: 6.00 Build 0)  -->
<!DOCTYPE svg PUBLIC "-//W3C//DTD SVG 1.1//EN" "http://www.w3.org/Graphics/SVG/1.1/DTD/svg11.dtd" [
	<!ENTITY st0 "fill-rule:evenodd;clip-rule:evenodd;">
]>
<svg version="1.1" id="Layer_1" xmlns="http://www.w3.org/2000/svg" xmlns:xlink="http://www.w3.org/1999/xlink" x="0px" y="0px"
	 width="16px" height="16px" viewBox="0 0 16 16" style="enable-background:new 0 0 16 16;" xml:space="preserve">
<g id="zoomin">
	<path  d="M7,5V3H5v2H3v2h2v2h2V7h2V5H7z M6,1C3.238,1,1,3.238,1,6s2.238,5,5,5s5-2.238,5-5S8.762,1,6,1z M6,10
		c-2.209,0-4-1.791-4-4s1.791-4,4-4s4,1.791,4,4S8.209,10,6,10z M12.5,11H12l-1.29-1.291c-0.294,0.372-0.629,0.707-1,1L11,12v0.5
		l2.5,2.5l1.5-1.5L12.5,11z"/>
</g>
</svg>
